<?xml version="1.0" encoding="us-ascii" standalone="no"?><svg xmlns="http://www.w3.org/2000/svg" xmlns:xlink="http://www.w3.org/1999/xlink" contentStyleType="text/css" height="398px" preserveAspectRatio="none" style="width:311px;height:398px;" version="1.1" viewBox="0 0 311 398" width="311px" zoomAndPan="magnify"><defs/><g><!--class AppletCreateDto--><g id="elem_AppletCreateDto"><rect codeLine="4" fill="#F1F1F1" height="186.6719" id="AppletCreateDto" rx="2.5" ry="2.5" style="stroke:#181818;stroke-width:0.5;" width="297" x="7" y="205"/><ellipse cx="93.25" cy="221" fill="#B4A7E5" rx="11" ry="11" style="stroke:#181818;stroke-width:1.0;"/><path d="M89.1719,216.7656 L89.1719,214.6094 L96.5625,214.6094 L96.5625,216.7656 L94.0938,216.7656 L94.0938,224.8438 L96.5625,224.8438 L96.5625,227 L89.1719,227 L89.1719,224.8438 L91.6406,224.8438 L91.6406,216.7656 L89.1719,216.7656 Z " fill="#000000"/><text fill="#000000" font-family="sans-serif" font-size="14" font-style="italic" lengthAdjust="spacing" textLength="116" x="113.75" y="225.8467">AppletCreateDto</text><line style="stroke:#181818;stroke-width:0.5;" x1="8" x2="303" y1="237" y2="237"/><ellipse cx="18" cy="250.6484" fill="none" rx="3" ry="3" style="stroke:#038048;stroke-width:1.0;"/><text fill="#000000" font-family="sans-serif" font-size="14" lengthAdjust="spacing" textLength="239" x="27" y="253.9951">action : DeepPartial&lt;ActionEntity&gt;</text><ellipse cx="18" cy="266.9453" fill="none" rx="3" ry="3" style="stroke:#038048;stroke-width:1.0;"/><text fill="#000000" font-family="sans-serif" font-size="14" lengthAdjust="spacing" textLength="79" x="27" y="270.292">config : any</text><ellipse cx="18" cy="283.2422" fill="none" rx="3" ry="3" style="stroke:#038048;stroke-width:1.0;"/><text fill="#000000" font-family="sans-serif" font-size="14" lengthAdjust="spacing" textLength="129" x="27" y="286.5889">description : string</text><ellipse cx="18" cy="299.5391" fill="none" rx="3" ry="3" style="stroke:#038048;stroke-width:1.0;"/><text fill="#000000" font-family="sans-serif" font-size="14" lengthAdjust="spacing" textLength="79" x="27" y="302.8857">id : number</text><ellipse cx="18" cy="315.8359" fill="none" rx="3" ry="3" style="stroke:#038048;stroke-width:1.0;"/><text fill="#000000" font-family="sans-serif" font-size="14" lengthAdjust="spacing" textLength="127" x="27" y="319.1826">is_active : boolean</text><ellipse cx="18" cy="332.1328" fill="none" rx="3" ry="3" style="stroke:#038048;stroke-width:1.0;"/><text fill="#000000" font-family="sans-serif" font-size="14" lengthAdjust="spacing" textLength="91" x="27" y="335.4795">name : string</text><ellipse cx="18" cy="348.4297" fill="none" rx="3" ry="3" style="stroke:#038048;stroke-width:1.0;"/><text fill="#000000" font-family="sans-serif" font-size="14" lengthAdjust="spacing" textLength="271" x="27" y="351.7764">reaction : DeepPartial&lt;ReactionEntity&gt;</text><ellipse cx="18" cy="364.7266" fill="none" rx="3" ry="3" style="stroke:#038048;stroke-width:1.0;"/><text fill="#000000" font-family="sans-serif" font-size="14" lengthAdjust="spacing" textLength="253" x="27" y="368.0732">service : DeepPartial&lt;ServiceEntity&gt;</text><ellipse cx="18" cy="381.0234" fill="none" rx="3" ry="3" style="stroke:#038048;stroke-width:1.0;"/><text fill="#000000" font-family="sans-serif" font-size="14" lengthAdjust="spacing" textLength="217" x="27" y="384.3701">user : DeepPartial&lt;UserEntity&gt;</text></g><!--class AppletDto--><g id="elem_AppletDto"><rect codeLine="15" fill="#F1F1F1" height="137.7813" id="AppletDto" rx="2.5" ry="2.5" style="stroke:#181818;stroke-width:0.5;" width="279" x="16" y="7"/><ellipse cx="116.25" cy="23" fill="#B4A7E5" rx="11" ry="11" style="stroke:#181818;stroke-width:1.0;"/><path d="M112.1719,18.7656 L112.1719,16.6094 L119.5625,16.6094 L119.5625,18.7656 L117.0938,18.7656 L117.0938,26.8438 L119.5625,26.8438 L119.5625,29 L112.1719,29 L112.1719,26.8438 L114.6406,26.8438 L114.6406,18.7656 L112.1719,18.7656 Z " fill="#000000"/><text fill="#000000" font-family="sans-serif" font-size="14" font-style="italic" lengthAdjust="spacing" textLength="70" x="136.75" y="27.8467">AppletDto</text><line style="stroke:#181818;stroke-width:0.5;" x1="17" x2="294" y1="39" y2="39"/><ellipse cx="27" cy="52.6484" fill="none" rx="3" ry="3" style="stroke:#038048;stroke-width:1.0;"/><text fill="#000000" font-family="sans-serif" font-size="14" lengthAdjust="spacing" textLength="79" x="36" y="55.9951">config : any</text><ellipse cx="27" cy="68.9453" fill="none" rx="3" ry="3" style="stroke:#038048;stroke-width:1.0;"/><text fill="#000000" font-family="sans-serif" font-size="14" lengthAdjust="spacing" textLength="129" x="36" y="72.292">description : string</text><ellipse cx="27" cy="85.2422" fill="none" rx="3" ry="3" style="stroke:#038048;stroke-width:1.0;"/><text fill="#000000" font-family="sans-serif" font-size="14" lengthAdjust="spacing" textLength="79" x="36" y="88.5889">id : number</text><ellipse cx="27" cy="101.5391" fill="none" rx="3" ry="3" style="stroke:#038048;stroke-width:1.0;"/><text fill="#000000" font-family="sans-serif" font-size="14" lengthAdjust="spacing" textLength="127" x="36" y="104.8857">is_active : boolean</text><ellipse cx="27" cy="117.8359" fill="none" rx="3" ry="3" style="stroke:#038048;stroke-width:1.0;"/><text fill="#000000" font-family="sans-serif" font-size="14" lengthAdjust="spacing" textLength="91" x="36" y="121.1826">name : string</text><ellipse cx="27" cy="134.1328" fill="none" rx="3" ry="3" style="stroke:#038048;stroke-width:1.0;"/><text fill="#000000" font-family="sans-serif" font-size="14" lengthAdjust="spacing" textLength="253" x="36" y="137.4795">service : DeepPartial&lt;ServiceEntity&gt;</text></g><!--reverse link AppletDto to AppletCreateDto--><g id="link_AppletDto_AppletCreateDto"><path codeLine="23" d="M155.5,163.26 C155.5,182.1 155.5,184.87 155.5,204.85 " fill="none" id="AppletDto-backto-AppletCreateDto" style="stroke:#181818;stroke-width:1.0;"/><polygon fill="none" points="155.5,145.26,149.5,163.26,161.5,163.26,155.5,145.26" style="stroke:#181818;stroke-width:1.0;"/></g><!--SRC=[lP71QiCm38RlUGhJw-WBZ3Besjt7oiv3jPLKr9QDh1H2stUVDsUGfZliD1y_VSA_f7maJY0Gp3FOOoUnPxU9FefH0SwbXApDWHmQ34a74r0FqUKfQWbz8SIAqe95irYdv54tWg2urRWmvyQKzm1MAR9vD5l4z0gY17wr_eOlhAJ3K_Liv9QwuW4FbJZCLYYDxLc5kAiLSWLm7_Oe8yWVN_-SiF1zZ1w1Qu4XuAov9Fmjqjk8Rq9bb1DPdAcxIc_ClgWpxRsW7-Twlwhfalvj-3yDT6sc4LUNvVB-l9y0]--></g></svg>