<?xml version="1.0" encoding="us-ascii" standalone="no"?><svg xmlns="http://www.w3.org/2000/svg" xmlns:xlink="http://www.w3.org/1999/xlink" contentStyleType="text/css" height="357px" preserveAspectRatio="none" style="width:391px;height:357px;" version="1.1" viewBox="0 0 391 357" width="391px" zoomAndPan="magnify"><defs/><g><!--class AppletController--><g id="elem_AppletController"><rect codeLine="4" fill="#F1F1F1" height="227.2656" id="AppletController" rx="2.5" ry="2.5" style="stroke:#181818;stroke-width:0.5;" width="377" x="7" y="123"/><ellipse cx="135.75" cy="139" fill="#ADD1B2" rx="11" ry="11" style="stroke:#181818;stroke-width:1.0;"/><path d="M138.7188,144.6406 Q138.1406,144.9375 137.5,145.0781 Q136.8594,145.2344 136.1563,145.2344 Q133.6563,145.2344 132.3281,143.5938 Q131.0156,141.9375 131.0156,138.8125 Q131.0156,135.6875 132.3281,134.0313 Q133.6563,132.375 136.1563,132.375 Q136.8594,132.375 137.5,132.5313 Q138.1563,132.6875 138.7188,132.9844 L138.7188,135.7031 Q138.0938,135.125 137.5,134.8594 Q136.9063,134.5781 136.2813,134.5781 Q134.9375,134.5781 134.25,135.6563 Q133.5625,136.7188 133.5625,138.8125 Q133.5625,140.9063 134.25,141.9844 Q134.9375,143.0469 136.2813,143.0469 Q136.9063,143.0469 137.5,142.7813 Q138.0938,142.5 138.7188,141.9219 L138.7188,144.6406 Z " fill="#000000"/><text fill="#000000" font-family="sans-serif" font-size="14" lengthAdjust="spacing" textLength="111" x="156.25" y="143.8467">AppletController</text><line style="stroke:#181818;stroke-width:0.5;" x1="8" x2="383" y1="155" y2="155"/><rect fill="none" height="6" style="stroke:#C82930;stroke-width:1.0;" width="6" x="15" y="165.6484"/><text fill="#000000" font-family="sans-serif" font-size="14" lengthAdjust="spacing" textLength="242" x="27" y="171.9951">actionService : ActionAppletService</text><rect fill="none" height="6" style="stroke:#C82930;stroke-width:1.0;" width="6" x="15" y="181.9453"/><text fill="#000000" font-family="sans-serif" font-size="14" lengthAdjust="spacing" textLength="263" x="27" y="188.292">appletCommonService : AppletService</text><rect fill="none" height="6" style="stroke:#C82930;stroke-width:1.0;" width="6" x="15" y="198.2422"/><text fill="#000000" font-family="sans-serif" font-size="14" lengthAdjust="spacing" textLength="200" x="27" y="204.5889">appletService : AppletService</text><rect fill="none" height="6" style="stroke:#C82930;stroke-width:1.0;" width="6" x="15" y="214.5391"/><text fill="#000000" font-family="sans-serif" font-size="14" lengthAdjust="spacing" textLength="274" x="27" y="220.8857">reactionService : ReactionAppletService</text><line style="stroke:#181818;stroke-width:0.5;" x1="8" x2="383" y1="228.1875" y2="228.1875"/><ellipse cx="18" cy="241.8359" fill="#84BE84" rx="3" ry="3" style="stroke:#038048;stroke-width:1.0;"/><text fill="#000000" font-family="sans-serif" font-size="14" lengthAdjust="spacing" textLength="218" x="27" y="245.1826">ack(context: RmqContext) : any</text><ellipse cx="18" cy="258.1328" fill="#84BE84" rx="3" ry="3" style="stroke:#038048;stroke-width:1.0;"/><text fill="#000000" font-family="sans-serif" font-size="14" lengthAdjust="spacing" textLength="341" x="27" y="261.4795">create(context: RmqContext) : Promise&lt;default&gt;</text><ellipse cx="18" cy="274.4297" fill="#84BE84" rx="3" ry="3" style="stroke:#038048;stroke-width:1.0;"/><text fill="#000000" font-family="sans-serif" font-size="14" lengthAdjust="spacing" textLength="341" x="27" y="277.7764">delete(context: RmqContext) : Promise&lt;default&gt;</text><ellipse cx="18" cy="290.7266" fill="#84BE84" rx="3" ry="3" style="stroke:#038048;stroke-width:1.0;"/><text fill="#000000" font-family="sans-serif" font-size="14" lengthAdjust="spacing" textLength="337" x="27" y="294.0732">findAll(context: RmqContext) : Promise&lt;default&gt;</text><ellipse cx="18" cy="307.0234" fill="#84BE84" rx="3" ry="3" style="stroke:#038048;stroke-width:1.0;"/><text fill="#000000" font-family="sans-serif" font-size="14" lengthAdjust="spacing" textLength="351" x="27" y="310.3701">findById(context: RmqContext) : Promise&lt;default&gt;</text><ellipse cx="18" cy="323.3203" fill="#84BE84" rx="3" ry="3" style="stroke:#038048;stroke-width:1.0;"/><text fill="#000000" font-family="sans-serif" font-size="14" lengthAdjust="spacing" textLength="324" x="27" y="326.667">test(context: RmqContext) : Promise&lt;default&gt;</text><ellipse cx="18" cy="339.6172" fill="#84BE84" rx="3" ry="3" style="stroke:#038048;stroke-width:1.0;"/><text fill="#000000" font-family="sans-serif" font-size="14" lengthAdjust="spacing" textLength="346" x="27" y="342.9639">update(context: RmqContext) : Promise&lt;default&gt;</text></g><!--class default--><g id="elem_default"><rect codeLine="17" fill="#F1F1F1" height="56.2969" id="default" rx="2.5" ry="2.5" style="stroke:#181818;stroke-width:0.5;" width="244" x="73.5" y="7"/><ellipse cx="167.75" cy="23" fill="#ADD1B2" rx="11" ry="11" style="stroke:#181818;stroke-width:1.0;"/><path d="M170.7188,28.6406 Q170.1406,28.9375 169.5,29.0781 Q168.8594,29.2344 168.1563,29.2344 Q165.6563,29.2344 164.3281,27.5938 Q163.0156,25.9375 163.0156,22.8125 Q163.0156,19.6875 164.3281,18.0313 Q165.6563,16.375 168.1563,16.375 Q168.8594,16.375 169.5,16.5313 Q170.1563,16.6875 170.7188,16.9844 L170.7188,19.7031 Q170.0938,19.125 169.5,18.8594 Q168.9063,18.5781 168.2813,18.5781 Q166.9375,18.5781 166.25,19.6563 Q165.5625,20.7188 165.5625,22.8125 Q165.5625,24.9063 166.25,25.9844 Q166.9375,27.0469 168.2813,27.0469 Q168.9063,27.0469 169.5,26.7813 Q170.0938,26.5 170.7188,25.9219 L170.7188,28.6406 Z " fill="#000000"/><text fill="#000000" font-family="sans-serif" font-size="14" lengthAdjust="spacing" textLength="47" x="188.25" y="27.8467">default</text><line style="stroke:#181818;stroke-width:0.5;" x1="74.5" x2="316.5" y1="39" y2="39"/><ellipse cx="84.5" cy="52.6484" fill="#84BE84" rx="3" ry="3" style="stroke:#038048;stroke-width:1.0;"/><text fill="#000000" font-family="sans-serif" font-size="14" lengthAdjust="spacing" textLength="218" x="93.5" y="55.9951">ack(context: RmqContext) : any</text></g><!--reverse link default to AppletController--><g id="link_default_AppletController"><path codeLine="20" d="M195.5,81.32 C195.5,97.22 195.5,100.45 195.5,122.56 " fill="none" id="default-backto-AppletController" style="stroke:#181818;stroke-width:1.0;"/><polygon fill="none" points="195.5,63.32,189.5,81.32,201.5,81.32,195.5,63.32" style="stroke:#181818;stroke-width:1.0;"/></g><!--SRC=[bP9BQWCn38RtSmgHLKgP2vHGcCogkzAUmDYQn4H-nDQK34dkNf5nw3Cjzih-_Nso4SexwwDAoi5QwTqcXT6RFb18m4dvB5VekTbQWu0kyWGEUHjC_XmD5aaIJIfdM7Gn4d8VFAT0X6a1nmPajKgp3VuLqvlL20_GNSupNj82bWhEVS5lWNyY2Ry_-rAId_2zT62fvUDuOE7Slf_tTs8fFysCbegCjx3d59pDk38ug97uSNOCoakLpc2zwOZgfVNqPEeininrnXXDJHFErzaeoNKa_clukVamLgUs_MMutW40]--></g></svg>