<?xml version="1.0" encoding="us-ascii" standalone="no"?><svg xmlns="http://www.w3.org/2000/svg" xmlns:xlink="http://www.w3.org/1999/xlink" contentStyleType="text/css" height="324px" preserveAspectRatio="none" style="width:440px;height:324px;" version="1.1" viewBox="0 0 440 324" width="440px" zoomAndPan="magnify"><defs/><g><!--class AuthController--><g id="elem_AuthController"><rect codeLine="4" fill="#F1F1F1" height="194.6719" id="AuthController" rx="2.5" ry="2.5" style="stroke:#181818;stroke-width:0.5;" width="426" x="7" y="123"/><ellipse cx="166.25" cy="139" fill="#ADD1B2" rx="11" ry="11" style="stroke:#181818;stroke-width:1.0;"/><path d="M169.2188,144.6406 Q168.6406,144.9375 168,145.0781 Q167.3594,145.2344 166.6563,145.2344 Q164.1563,145.2344 162.8281,143.5938 Q161.5156,141.9375 161.5156,138.8125 Q161.5156,135.6875 162.8281,134.0313 Q164.1563,132.375 166.6563,132.375 Q167.3594,132.375 168,132.5313 Q168.6563,132.6875 169.2188,132.9844 L169.2188,135.7031 Q168.5938,135.125 168,134.8594 Q167.4063,134.5781 166.7813,134.5781 Q165.4375,134.5781 164.75,135.6563 Q164.0625,136.7188 164.0625,138.8125 Q164.0625,140.9063 164.75,141.9844 Q165.4375,143.0469 166.7813,143.0469 Q167.4063,143.0469 168,142.7813 Q168.5938,142.5 169.2188,141.9219 L169.2188,144.6406 Z " fill="#000000"/><text fill="#000000" font-family="sans-serif" font-size="14" lengthAdjust="spacing" textLength="99" x="186.75" y="143.8467">AuthController</text><line style="stroke:#181818;stroke-width:0.5;" x1="8" x2="432" y1="155" y2="155"/><rect fill="none" height="6" style="stroke:#C82930;stroke-width:1.0;" width="6" x="15" y="165.6484"/><text fill="#000000" font-family="sans-serif" font-size="14" lengthAdjust="spacing" textLength="176" x="27" y="171.9951">authService : AuthService</text><line style="stroke:#181818;stroke-width:0.5;" x1="8" x2="432" y1="179.2969" y2="179.2969"/><ellipse cx="18" cy="192.9453" fill="#84BE84" rx="3" ry="3" style="stroke:#038048;stroke-width:1.0;"/><text fill="#000000" font-family="sans-serif" font-size="14" lengthAdjust="spacing" textLength="218" x="27" y="196.292">ack(context: RmqContext) : any</text><ellipse cx="18" cy="209.2422" fill="#84BE84" rx="3" ry="3" style="stroke:#038048;stroke-width:1.0;"/><text fill="#000000" font-family="sans-serif" font-size="14" lengthAdjust="spacing" textLength="397" x="27" y="212.5889">connectOAuth(context: RmqContext) : Promise&lt;default&gt;</text><ellipse cx="18" cy="225.5391" fill="#84BE84" rx="3" ry="3" style="stroke:#038048;stroke-width:1.0;"/><text fill="#000000" font-family="sans-serif" font-size="14" lengthAdjust="spacing" textLength="319" x="27" y="228.8857">me(context: RmqContext) : Promise&lt;default&gt;</text><ellipse cx="18" cy="241.8359" fill="#84BE84" rx="3" ry="3" style="stroke:#038048;stroke-width:1.0;"/><text fill="#000000" font-family="sans-serif" font-size="14" lengthAdjust="spacing" textLength="269" x="27" y="245.1826">recoverPassword() : Promise&lt;default&gt;</text><ellipse cx="18" cy="258.1328" fill="#84BE84" rx="3" ry="3" style="stroke:#038048;stroke-width:1.0;"/><text fill="#000000" font-family="sans-serif" font-size="14" lengthAdjust="spacing" textLength="350" x="27" y="261.4795">register(context: RmqContext) : Promise&lt;default&gt;</text><ellipse cx="18" cy="274.4297" fill="#84BE84" rx="3" ry="3" style="stroke:#038048;stroke-width:1.0;"/><text fill="#000000" font-family="sans-serif" font-size="14" lengthAdjust="spacing" textLength="400" x="27" y="277.7764">resetPassword(context: RmqContext) : Promise&lt;default&gt;</text><ellipse cx="18" cy="290.7266" fill="#84BE84" rx="3" ry="3" style="stroke:#038048;stroke-width:1.0;"/><text fill="#000000" font-family="sans-serif" font-size="14" lengthAdjust="spacing" textLength="338" x="27" y="294.0732">signIn(context: RmqContext) : Promise&lt;default&gt;</text><ellipse cx="18" cy="307.0234" fill="#84BE84" rx="3" ry="3" style="stroke:#038048;stroke-width:1.0;"/><text fill="#000000" font-family="sans-serif" font-size="14" lengthAdjust="spacing" textLength="369" x="27" y="310.3701">signOAuth(context: RmqContext) : Promise&lt;default&gt;</text></g><!--class default--><g id="elem_default"><rect codeLine="15" fill="#F1F1F1" height="56.2969" id="default" rx="2.5" ry="2.5" style="stroke:#181818;stroke-width:0.5;" width="244" x="98" y="7"/><ellipse cx="192.25" cy="23" fill="#ADD1B2" rx="11" ry="11" style="stroke:#181818;stroke-width:1.0;"/><path d="M195.2188,28.6406 Q194.6406,28.9375 194,29.0781 Q193.3594,29.2344 192.6563,29.2344 Q190.1563,29.2344 188.8281,27.5938 Q187.5156,25.9375 187.5156,22.8125 Q187.5156,19.6875 188.8281,18.0313 Q190.1563,16.375 192.6563,16.375 Q193.3594,16.375 194,16.5313 Q194.6563,16.6875 195.2188,16.9844 L195.2188,19.7031 Q194.5938,19.125 194,18.8594 Q193.4063,18.5781 192.7813,18.5781 Q191.4375,18.5781 190.75,19.6563 Q190.0625,20.7188 190.0625,22.8125 Q190.0625,24.9063 190.75,25.9844 Q191.4375,27.0469 192.7813,27.0469 Q193.4063,27.0469 194,26.7813 Q194.5938,26.5 195.2188,25.9219 L195.2188,28.6406 Z " fill="#000000"/><text fill="#000000" font-family="sans-serif" font-size="14" lengthAdjust="spacing" textLength="47" x="212.75" y="27.8467">default</text><line style="stroke:#181818;stroke-width:0.5;" x1="99" x2="341" y1="39" y2="39"/><ellipse cx="109" cy="52.6484" fill="#84BE84" rx="3" ry="3" style="stroke:#038048;stroke-width:1.0;"/><text fill="#000000" font-family="sans-serif" font-size="14" lengthAdjust="spacing" textLength="218" x="118" y="55.9951">ack(context: RmqContext) : any</text></g><!--reverse link default to AuthController--><g id="link_default_AuthController"><path codeLine="18" d="M220,81.08 C220,97.23 220,100.82 220,122.79 " fill="none" id="default-backto-AuthController" style="stroke:#181818;stroke-width:1.0;"/><polygon fill="none" points="220,63.08,214,81.08,226,81.08,220,63.08" style="stroke:#181818;stroke-width:1.0;"/></g><!--SRC=[bP91JWCn34NtSmghgo8q5wWgf38hLbHmWYXnPw8cTkju2XNqxXY6KYG4A5ab__zdAt7ADjBEYSjmw_os5nufT9nOGCLHCGj9co461CmxFK967JYKxz8cOZB59rSAp5QZ3XsJ2gU4CeEN1corpkH7b4Fq20jONKuVzhKrdtkZy5aNy93ttRI_igoZuvGndz3h_JlyMtWjd6F1PS2D6vFUJ6J6khoWvmFAsYxqn1BcVoNxM1Ibjdv1_QfUXPROqntLCtMlTZfFyrCvZ_6_EPsQ2x5yRTiVt-4D]--></g></svg>