<?xml version="1.0" encoding="us-ascii" standalone="no"?><svg xmlns="http://www.w3.org/2000/svg" xmlns:xlink="http://www.w3.org/1999/xlink" contentStyleType="text/css" height="243px" preserveAspectRatio="none" style="width:691px;height:243px;" version="1.1" viewBox="0 0 691 243" width="691px" zoomAndPan="magnify"><defs/><g><!--class default--><g id="elem_default"><rect codeLine="4" fill="#F1F1F1" height="56.2969" id="default" rx="2.5" ry="2.5" style="stroke:#181818;stroke-width:0.5;" width="244" x="251" y="7"/><ellipse cx="345.25" cy="23" fill="#ADD1B2" rx="11" ry="11" style="stroke:#181818;stroke-width:1.0;"/><path d="M348.2188,28.6406 Q347.6406,28.9375 347,29.0781 Q346.3594,29.2344 345.6563,29.2344 Q343.1563,29.2344 341.8281,27.5938 Q340.5156,25.9375 340.5156,22.8125 Q340.5156,19.6875 341.8281,18.0313 Q343.1563,16.375 345.6563,16.375 Q346.3594,16.375 347,16.5313 Q347.6563,16.6875 348.2188,16.9844 L348.2188,19.7031 Q347.5938,19.125 347,18.8594 Q346.4063,18.5781 345.7813,18.5781 Q344.4375,18.5781 343.75,19.6563 Q343.0625,20.7188 343.0625,22.8125 Q343.0625,24.9063 343.75,25.9844 Q344.4375,27.0469 345.7813,27.0469 Q346.4063,27.0469 347,26.7813 Q347.5938,26.5 348.2188,25.9219 L348.2188,28.6406 Z " fill="#000000"/><text fill="#000000" font-family="sans-serif" font-size="14" lengthAdjust="spacing" textLength="47" x="365.75" y="27.8467">default</text><line style="stroke:#181818;stroke-width:0.5;" x1="252" x2="494" y1="39" y2="39"/><ellipse cx="262" cy="52.6484" fill="#84BE84" rx="3" ry="3" style="stroke:#038048;stroke-width:1.0;"/><text fill="#000000" font-family="sans-serif" font-size="14" lengthAdjust="spacing" textLength="218" x="271" y="55.9951">ack(context: RmqContext) : any</text></g><!--class AuthController--><g id="elem_AuthController"><rect codeLine="7" fill="#F1F1F1" height="113.1875" id="AuthController" rx="2.5" ry="2.5" style="stroke:#181818;stroke-width:0.5;" width="376" x="7" y="123"/><ellipse cx="141.25" cy="139" fill="#ADD1B2" rx="11" ry="11" style="stroke:#181818;stroke-width:1.0;"/><path d="M144.2188,144.6406 Q143.6406,144.9375 143,145.0781 Q142.3594,145.2344 141.6563,145.2344 Q139.1563,145.2344 137.8281,143.5938 Q136.5156,141.9375 136.5156,138.8125 Q136.5156,135.6875 137.8281,134.0313 Q139.1563,132.375 141.6563,132.375 Q142.3594,132.375 143,132.5313 Q143.6563,132.6875 144.2188,132.9844 L144.2188,135.7031 Q143.5938,135.125 143,134.8594 Q142.4063,134.5781 141.7813,134.5781 Q140.4375,134.5781 139.75,135.6563 Q139.0625,136.7188 139.0625,138.8125 Q139.0625,140.9063 139.75,141.9844 Q140.4375,143.0469 141.7813,143.0469 Q142.4063,143.0469 143,142.7813 Q143.5938,142.5 144.2188,141.9219 L144.2188,144.6406 Z " fill="#000000"/><text fill="#000000" font-family="sans-serif" font-size="14" lengthAdjust="spacing" textLength="99" x="161.75" y="143.8467">AuthController</text><line style="stroke:#181818;stroke-width:0.5;" x1="8" x2="382" y1="155" y2="155"/><rect fill="none" height="6" style="stroke:#C82930;stroke-width:1.0;" width="6" x="15" y="165.6484"/><text fill="#000000" font-family="sans-serif" font-size="14" lengthAdjust="spacing" textLength="176" x="27" y="171.9951">authService : AuthService</text><line style="stroke:#181818;stroke-width:0.5;" x1="8" x2="382" y1="179.2969" y2="179.2969"/><ellipse cx="18" cy="192.9453" fill="#84BE84" rx="3" ry="3" style="stroke:#038048;stroke-width:1.0;"/><text fill="#000000" font-family="sans-serif" font-size="14" lengthAdjust="spacing" textLength="218" x="27" y="196.292">ack(context: RmqContext) : any</text><ellipse cx="18" cy="209.2422" fill="#84BE84" rx="3" ry="3" style="stroke:#038048;stroke-width:1.0;"/><text fill="#000000" font-family="sans-serif" font-size="14" lengthAdjust="spacing" textLength="350" x="27" y="212.5889">register(context: RmqContext) : Promise&lt;default&gt;</text><ellipse cx="18" cy="225.5391" fill="#84BE84" rx="3" ry="3" style="stroke:#038048;stroke-width:1.0;"/><text fill="#000000" font-family="sans-serif" font-size="14" lengthAdjust="spacing" textLength="315" x="27" y="228.8857">signIn(context: RmqContext) : Promise&lt;any&gt;</text></g><!--class CronController--><g id="elem_CronController"><rect codeLine="14" fill="#F1F1F1" height="96.8906" id="CronController" rx="2.5" ry="2.5" style="stroke:#181818;stroke-width:0.5;" width="266" x="418" y="131"/><ellipse cx="496.75" cy="147" fill="#ADD1B2" rx="11" ry="11" style="stroke:#181818;stroke-width:1.0;"/><path d="M499.7188,152.6406 Q499.1406,152.9375 498.5,153.0781 Q497.8594,153.2344 497.1563,153.2344 Q494.6563,153.2344 493.3281,151.5938 Q492.0156,149.9375 492.0156,146.8125 Q492.0156,143.6875 493.3281,142.0313 Q494.6563,140.375 497.1563,140.375 Q497.8594,140.375 498.5,140.5313 Q499.1563,140.6875 499.7188,140.9844 L499.7188,143.7031 Q499.0938,143.125 498.5,142.8594 Q497.9063,142.5781 497.2813,142.5781 Q495.9375,142.5781 495.25,143.6563 Q494.5625,144.7188 494.5625,146.8125 Q494.5625,148.9063 495.25,149.9844 Q495.9375,151.0469 497.2813,151.0469 Q497.9063,151.0469 498.5,150.7813 Q499.0938,150.5 499.7188,149.9219 L499.7188,152.6406 Z " fill="#000000"/><text fill="#000000" font-family="sans-serif" font-size="14" lengthAdjust="spacing" textLength="100" x="517.25" y="151.8467">CronController</text><line style="stroke:#181818;stroke-width:0.5;" x1="419" x2="683" y1="163" y2="163"/><rect fill="none" height="6" style="stroke:#C82930;stroke-width:1.0;" width="6" x="426" y="173.6484"/><text fill="#000000" font-family="sans-serif" font-size="14" lengthAdjust="spacing" textLength="177" x="438" y="179.9951">cronService : CronService</text><line style="stroke:#181818;stroke-width:0.5;" x1="419" x2="683" y1="187.2969" y2="187.2969"/><ellipse cx="429" cy="200.9453" fill="#84BE84" rx="3" ry="3" style="stroke:#038048;stroke-width:1.0;"/><text fill="#000000" font-family="sans-serif" font-size="14" lengthAdjust="spacing" textLength="218" x="438" y="204.292">ack(context: RmqContext) : any</text><ellipse cx="429" cy="217.2422" fill="#84BE84" rx="3" ry="3" style="stroke:#038048;stroke-width:1.0;"/><text fill="#000000" font-family="sans-serif" font-size="14" lengthAdjust="spacing" textLength="240" x="438" y="220.5889">get(context: RmqContext) : default</text></g><!--reverse link default to AuthController--><g id="link_default_AuthController"><path codeLine="13" d="M325.0496,74.391 C303.9696,91.271 290.14,102.34 264.52,122.85 " fill="none" id="default-backto-AuthController" style="stroke:#181818;stroke-width:1.0;"/><polygon fill="none" points="339.1,63.14,321.2992,69.7075,328.7999,79.0745,339.1,63.14" style="stroke:#181818;stroke-width:1.0;"/></g><!--reverse link default to CronController--><g id="link_default_CronController"><path codeLine="19" d="M420.9522,74.3888 C444.8622,93.5288 463.46,108.42 491.63,130.97 " fill="none" id="default-backto-CronController" style="stroke:#181818;stroke-width:1.0;"/><polygon fill="none" points="406.9,63.14,417.2026,79.0729,424.7018,69.7047,406.9,63.14" style="stroke:#181818;stroke-width:1.0;"/></g><!--SRC=[ZOzDhi8m38JtFON52eHw0OIGe2js24uGfQQDI1nmN0G2xexvgOhU0q5MyTXZpvSsZhQ6JO2PiPkAOqDb4Nra43QKj8KaMUrA10nREK90gMEPNgMrGw-AzIObw9MuDesN7fmoq3VKjNqRIV0W8rY6NV7u3s04XexPfVLD6wblFOxU8xVstAYyGjuxY-gOTjLFs-ypZ9LBWlnfSC4nk8JZP_B9mvLSHNFwvj4Z4sNegCVdFFy7qp8M7EaDerMvOoowwdV62kNJp3FQcvH_ubm1]--></g></svg>