<?xml version="1.0" encoding="us-ascii" standalone="no"?><svg xmlns="http://www.w3.org/2000/svg" xmlns:xlink="http://www.w3.org/1999/xlink" contentStyleType="text/css" height="968px" preserveAspectRatio="none" style="width:713px;height:968px;" version="1.1" viewBox="0 0 713 968" width="713px" zoomAndPan="magnify"><defs/><g><!--class default--><g id="elem_default"><rect codeLine="5" fill="#F1F1F1" height="56.2969" id="default" rx="2.5" ry="2.5" style="stroke:#181818;stroke-width:0.5;" width="244" x="7" y="489"/><ellipse cx="101.25" cy="505" fill="#ADD1B2" rx="11" ry="11" style="stroke:#181818;stroke-width:1.0;"/><path d="M104.2188,510.6406 Q103.6406,510.9375 103,511.0781 Q102.3594,511.2344 101.6563,511.2344 Q99.1563,511.2344 97.8281,509.5938 Q96.5156,507.9375 96.5156,504.8125 Q96.5156,501.6875 97.8281,500.0313 Q99.1563,498.375 101.6563,498.375 Q102.3594,498.375 103,498.5313 Q103.6563,498.6875 104.2188,498.9844 L104.2188,501.7031 Q103.5938,501.125 103,500.8594 Q102.4063,500.5781 101.7813,500.5781 Q100.4375,500.5781 99.75,501.6563 Q99.0625,502.7188 99.0625,504.8125 Q99.0625,506.9063 99.75,507.9844 Q100.4375,509.0469 101.7813,509.0469 Q102.4063,509.0469 103,508.7813 Q103.5938,508.5 104.2188,507.9219 L104.2188,510.6406 Z " fill="#000000"/><text fill="#000000" font-family="sans-serif" font-size="14" lengthAdjust="spacing" textLength="47" x="121.75" y="509.8467">default</text><line style="stroke:#181818;stroke-width:0.5;" x1="8" x2="250" y1="521" y2="521"/><ellipse cx="18" cy="534.6484" fill="#84BE84" rx="3" ry="3" style="stroke:#038048;stroke-width:1.0;"/><text fill="#000000" font-family="sans-serif" font-size="14" lengthAdjust="spacing" textLength="218" x="27" y="537.9951">ack(context: RmqContext) : any</text></g><!--class AuthController--><g id="elem_AuthController"><rect codeLine="8" fill="#F1F1F1" height="162.0781" id="AuthController" rx="2.5" ry="2.5" style="stroke:#181818;stroke-width:0.5;" width="395" x="311" y="7"/><ellipse cx="454.75" cy="23" fill="#ADD1B2" rx="11" ry="11" style="stroke:#181818;stroke-width:1.0;"/><path d="M457.7188,28.6406 Q457.1406,28.9375 456.5,29.0781 Q455.8594,29.2344 455.1563,29.2344 Q452.6563,29.2344 451.3281,27.5938 Q450.0156,25.9375 450.0156,22.8125 Q450.0156,19.6875 451.3281,18.0313 Q452.6563,16.375 455.1563,16.375 Q455.8594,16.375 456.5,16.5313 Q457.1563,16.6875 457.7188,16.9844 L457.7188,19.7031 Q457.0938,19.125 456.5,18.8594 Q455.9063,18.5781 455.2813,18.5781 Q453.9375,18.5781 453.25,19.6563 Q452.5625,20.7188 452.5625,22.8125 Q452.5625,24.9063 453.25,25.9844 Q453.9375,27.0469 455.2813,27.0469 Q455.9063,27.0469 456.5,26.7813 Q457.0938,26.5 457.7188,25.9219 L457.7188,28.6406 Z " fill="#000000"/><text fill="#000000" font-family="sans-serif" font-size="14" lengthAdjust="spacing" textLength="99" x="475.25" y="27.8467">AuthController</text><line style="stroke:#181818;stroke-width:0.5;" x1="312" x2="705" y1="39" y2="39"/><rect fill="none" height="6" style="stroke:#C82930;stroke-width:1.0;" width="6" x="319" y="49.6484"/><text fill="#000000" font-family="sans-serif" font-size="14" lengthAdjust="spacing" textLength="176" x="331" y="55.9951">authService : AuthService</text><line style="stroke:#181818;stroke-width:0.5;" x1="312" x2="705" y1="63.2969" y2="63.2969"/><ellipse cx="322" cy="76.9453" fill="#84BE84" rx="3" ry="3" style="stroke:#038048;stroke-width:1.0;"/><text fill="#000000" font-family="sans-serif" font-size="14" lengthAdjust="spacing" textLength="218" x="331" y="80.292">ack(context: RmqContext) : any</text><ellipse cx="322" cy="93.2422" fill="#84BE84" rx="3" ry="3" style="stroke:#038048;stroke-width:1.0;"/><text fill="#000000" font-family="sans-serif" font-size="14" lengthAdjust="spacing" textLength="319" x="331" y="96.5889">me(context: RmqContext) : Promise&lt;default&gt;</text><ellipse cx="322" cy="109.5391" fill="#84BE84" rx="3" ry="3" style="stroke:#038048;stroke-width:1.0;"/><text fill="#000000" font-family="sans-serif" font-size="14" lengthAdjust="spacing" textLength="338" x="331" y="112.8857">oAuth(context: RmqContext) : Promise&lt;default&gt;</text><ellipse cx="322" cy="125.8359" fill="#84BE84" rx="3" ry="3" style="stroke:#038048;stroke-width:1.0;"/><text fill="#000000" font-family="sans-serif" font-size="14" lengthAdjust="spacing" textLength="350" x="331" y="129.1826">register(context: RmqContext) : Promise&lt;default&gt;</text><ellipse cx="322" cy="142.1328" fill="#84BE84" rx="3" ry="3" style="stroke:#038048;stroke-width:1.0;"/><text fill="#000000" font-family="sans-serif" font-size="14" lengthAdjust="spacing" textLength="338" x="331" y="145.4795">signIn(context: RmqContext) : Promise&lt;default&gt;</text><ellipse cx="322" cy="158.4297" fill="#84BE84" rx="3" ry="3" style="stroke:#038048;stroke-width:1.0;"/><text fill="#000000" font-family="sans-serif" font-size="14" lengthAdjust="spacing" textLength="369" x="331" y="161.7764">signOAuth(context: RmqContext) : Promise&lt;default&gt;</text></g><!--class DiscordController--><g id="elem_DiscordController"><rect codeLine="18" fill="#F1F1F1" height="96.8906" id="DiscordController" rx="2.5" ry="2.5" style="stroke:#181818;stroke-width:0.5;" width="247" x="385" y="204.5"/><ellipse cx="444.25" cy="220.5" fill="#ADD1B2" rx="11" ry="11" style="stroke:#181818;stroke-width:1.0;"/><path d="M447.2188,226.1406 Q446.6406,226.4375 446,226.5781 Q445.3594,226.7344 444.6563,226.7344 Q442.1563,226.7344 440.8281,225.0938 Q439.5156,223.4375 439.5156,220.3125 Q439.5156,217.1875 440.8281,215.5313 Q442.1563,213.875 444.6563,213.875 Q445.3594,213.875 446,214.0313 Q446.6563,214.1875 447.2188,214.4844 L447.2188,217.2031 Q446.5938,216.625 446,216.3594 Q445.4063,216.0781 444.7813,216.0781 Q443.4375,216.0781 442.75,217.1563 Q442.0625,218.2188 442.0625,220.3125 Q442.0625,222.4063 442.75,223.4844 Q443.4375,224.5469 444.7813,224.5469 Q445.4063,224.5469 446,224.2813 Q446.5938,224 447.2188,223.4219 L447.2188,226.1406 Z " fill="#000000"/><text fill="#000000" font-family="sans-serif" font-size="14" lengthAdjust="spacing" textLength="120" x="464.75" y="225.3467">DiscordController</text><line style="stroke:#181818;stroke-width:0.5;" x1="386" x2="631" y1="236.5" y2="236.5"/><rect fill="none" height="6" style="stroke:#C82930;stroke-width:1.0;" width="6" x="393" y="247.1484"/><text fill="#000000" font-family="sans-serif" font-size="14" lengthAdjust="spacing" textLength="217" x="405" y="253.4951">discordService : DiscordService</text><line style="stroke:#181818;stroke-width:0.5;" x1="386" x2="631" y1="260.7969" y2="260.7969"/><ellipse cx="396" cy="274.4453" fill="#84BE84" rx="3" ry="3" style="stroke:#038048;stroke-width:1.0;"/><text fill="#000000" font-family="sans-serif" font-size="14" lengthAdjust="spacing" textLength="218" x="405" y="277.792">ack(context: RmqContext) : any</text><ellipse cx="396" cy="290.7422" fill="#84BE84" rx="3" ry="3" style="stroke:#038048;stroke-width:1.0;"/><text fill="#000000" font-family="sans-serif" font-size="14" lengthAdjust="spacing" textLength="221" x="405" y="294.0889">get(context: RmqContext) : void</text></g><!--class GmailController--><g id="elem_GmailController"><rect codeLine="24" fill="#F1F1F1" height="96.8906" id="GmailController" rx="2.5" ry="2.5" style="stroke:#181818;stroke-width:0.5;" width="247" x="385" y="336.5"/><ellipse cx="451.75" cy="352.5" fill="#ADD1B2" rx="11" ry="11" style="stroke:#181818;stroke-width:1.0;"/><path d="M454.7188,358.1406 Q454.1406,358.4375 453.5,358.5781 Q452.8594,358.7344 452.1563,358.7344 Q449.6563,358.7344 448.3281,357.0938 Q447.0156,355.4375 447.0156,352.3125 Q447.0156,349.1875 448.3281,347.5313 Q449.6563,345.875 452.1563,345.875 Q452.8594,345.875 453.5,346.0313 Q454.1563,346.1875 454.7188,346.4844 L454.7188,349.2031 Q454.0938,348.625 453.5,348.3594 Q452.9063,348.0781 452.2813,348.0781 Q450.9375,348.0781 450.25,349.1563 Q449.5625,350.2188 449.5625,352.3125 Q449.5625,354.4063 450.25,355.4844 Q450.9375,356.5469 452.2813,356.5469 Q452.9063,356.5469 453.5,356.2813 Q454.0938,356 454.7188,355.4219 L454.7188,358.1406 Z " fill="#000000"/><text fill="#000000" font-family="sans-serif" font-size="14" lengthAdjust="spacing" textLength="105" x="472.25" y="357.3467">GmailController</text><line style="stroke:#181818;stroke-width:0.5;" x1="386" x2="631" y1="368.5" y2="368.5"/><rect fill="none" height="6" style="stroke:#C82930;stroke-width:1.0;" width="6" x="393" y="379.1484"/><text fill="#000000" font-family="sans-serif" font-size="14" lengthAdjust="spacing" textLength="187" x="405" y="385.4951">gmailService : GmailService</text><line style="stroke:#181818;stroke-width:0.5;" x1="386" x2="631" y1="392.7969" y2="392.7969"/><ellipse cx="396" cy="406.4453" fill="#84BE84" rx="3" ry="3" style="stroke:#038048;stroke-width:1.0;"/><text fill="#000000" font-family="sans-serif" font-size="14" lengthAdjust="spacing" textLength="218" x="405" y="409.792">ack(context: RmqContext) : any</text><ellipse cx="396" cy="422.7422" fill="#84BE84" rx="3" ry="3" style="stroke:#038048;stroke-width:1.0;"/><text fill="#000000" font-family="sans-serif" font-size="14" lengthAdjust="spacing" textLength="221" x="405" y="426.0889">get(context: RmqContext) : void</text></g><!--class GoogleDriveController--><g id="elem_GoogleDriveController"><rect codeLine="30" fill="#F1F1F1" height="96.8906" id="GoogleDriveController" rx="2.5" ry="2.5" style="stroke:#181818;stroke-width:0.5;" width="307" x="355" y="468.5"/><ellipse cx="428.25" cy="484.5" fill="#ADD1B2" rx="11" ry="11" style="stroke:#181818;stroke-width:1.0;"/><path d="M431.2188,490.1406 Q430.6406,490.4375 430,490.5781 Q429.3594,490.7344 428.6563,490.7344 Q426.1563,490.7344 424.8281,489.0938 Q423.5156,487.4375 423.5156,484.3125 Q423.5156,481.1875 424.8281,479.5313 Q426.1563,477.875 428.6563,477.875 Q429.3594,477.875 430,478.0313 Q430.6563,478.1875 431.2188,478.4844 L431.2188,481.2031 Q430.5938,480.625 430,480.3594 Q429.4063,480.0781 428.7813,480.0781 Q427.4375,480.0781 426.75,481.1563 Q426.0625,482.2188 426.0625,484.3125 Q426.0625,486.4063 426.75,487.4844 Q427.4375,488.5469 428.7813,488.5469 Q429.4063,488.5469 430,488.2813 Q430.5938,488 431.2188,487.4219 L431.2188,490.1406 Z " fill="#000000"/><text fill="#000000" font-family="sans-serif" font-size="14" lengthAdjust="spacing" textLength="152" x="448.75" y="489.3467">GoogleDriveController</text><line style="stroke:#181818;stroke-width:0.5;" x1="356" x2="661" y1="500.5" y2="500.5"/><rect fill="none" height="6" style="stroke:#C82930;stroke-width:1.0;" width="6" x="363" y="511.1484"/><text fill="#000000" font-family="sans-serif" font-size="14" lengthAdjust="spacing" textLength="281" x="375" y="517.4951">googleDriveService : GoogleDriveService</text><line style="stroke:#181818;stroke-width:0.5;" x1="356" x2="661" y1="524.7969" y2="524.7969"/><ellipse cx="366" cy="538.4453" fill="#84BE84" rx="3" ry="3" style="stroke:#038048;stroke-width:1.0;"/><text fill="#000000" font-family="sans-serif" font-size="14" lengthAdjust="spacing" textLength="218" x="375" y="541.792">ack(context: RmqContext) : any</text><ellipse cx="366" cy="554.7422" fill="#84BE84" rx="3" ry="3" style="stroke:#038048;stroke-width:1.0;"/><text fill="#000000" font-family="sans-serif" font-size="14" lengthAdjust="spacing" textLength="221" x="375" y="558.0889">get(context: RmqContext) : void</text></g><!--class InstagramController--><g id="elem_InstagramController"><rect codeLine="36" fill="#F1F1F1" height="96.8906" id="InstagramController" rx="2.5" ry="2.5" style="stroke:#181818;stroke-width:0.5;" width="275" x="371" y="600.5"/><ellipse cx="436.75" cy="616.5" fill="#ADD1B2" rx="11" ry="11" style="stroke:#181818;stroke-width:1.0;"/><path d="M439.7188,622.1406 Q439.1406,622.4375 438.5,622.5781 Q437.8594,622.7344 437.1563,622.7344 Q434.6563,622.7344 433.3281,621.0938 Q432.0156,619.4375 432.0156,616.3125 Q432.0156,613.1875 433.3281,611.5313 Q434.6563,609.875 437.1563,609.875 Q437.8594,609.875 438.5,610.0313 Q439.1563,610.1875 439.7188,610.4844 L439.7188,613.2031 Q439.0938,612.625 438.5,612.3594 Q437.9063,612.0781 437.2813,612.0781 Q435.9375,612.0781 435.25,613.1563 Q434.5625,614.2188 434.5625,616.3125 Q434.5625,618.4063 435.25,619.4844 Q435.9375,620.5469 437.2813,620.5469 Q437.9063,620.5469 438.5,620.2813 Q439.0938,620 439.7188,619.4219 L439.7188,622.1406 Z " fill="#000000"/><text fill="#000000" font-family="sans-serif" font-size="14" lengthAdjust="spacing" textLength="135" x="457.25" y="621.3467">InstagramController</text><line style="stroke:#181818;stroke-width:0.5;" x1="372" x2="645" y1="632.5" y2="632.5"/><rect fill="none" height="6" style="stroke:#C82930;stroke-width:1.0;" width="6" x="379" y="643.1484"/><text fill="#000000" font-family="sans-serif" font-size="14" lengthAdjust="spacing" textLength="249" x="391" y="649.4951">instagramService : InstagramService</text><line style="stroke:#181818;stroke-width:0.5;" x1="372" x2="645" y1="656.7969" y2="656.7969"/><ellipse cx="382" cy="670.4453" fill="#84BE84" rx="3" ry="3" style="stroke:#038048;stroke-width:1.0;"/><text fill="#000000" font-family="sans-serif" font-size="14" lengthAdjust="spacing" textLength="218" x="391" y="673.792">ack(context: RmqContext) : any</text><ellipse cx="382" cy="686.7422" fill="#84BE84" rx="3" ry="3" style="stroke:#038048;stroke-width:1.0;"/><text fill="#000000" font-family="sans-serif" font-size="14" lengthAdjust="spacing" textLength="221" x="391" y="690.0889">get(context: RmqContext) : void</text></g><!--class SpotifyController--><g id="elem_SpotifyController"><rect codeLine="42" fill="#F1F1F1" height="96.8906" id="SpotifyController" rx="2.5" ry="2.5" style="stroke:#181818;stroke-width:0.5;" width="247" x="385" y="732.5"/><ellipse cx="447.75" cy="748.5" fill="#ADD1B2" rx="11" ry="11" style="stroke:#181818;stroke-width:1.0;"/><path d="M450.7188,754.1406 Q450.1406,754.4375 449.5,754.5781 Q448.8594,754.7344 448.1563,754.7344 Q445.6563,754.7344 444.3281,753.0938 Q443.0156,751.4375 443.0156,748.3125 Q443.0156,745.1875 444.3281,743.5313 Q445.6563,741.875 448.1563,741.875 Q448.8594,741.875 449.5,742.0313 Q450.1563,742.1875 450.7188,742.4844 L450.7188,745.2031 Q450.0938,744.625 449.5,744.3594 Q448.9063,744.0781 448.2813,744.0781 Q446.9375,744.0781 446.25,745.1563 Q445.5625,746.2188 445.5625,748.3125 Q445.5625,750.4063 446.25,751.4844 Q446.9375,752.5469 448.2813,752.5469 Q448.9063,752.5469 449.5,752.2813 Q450.0938,752 450.7188,751.4219 L450.7188,754.1406 Z " fill="#000000"/><text fill="#000000" font-family="sans-serif" font-size="14" lengthAdjust="spacing" textLength="113" x="468.25" y="753.3467">SpotifyController</text><line style="stroke:#181818;stroke-width:0.5;" x1="386" x2="631" y1="764.5" y2="764.5"/><rect fill="none" height="6" style="stroke:#C82930;stroke-width:1.0;" width="6" x="393" y="775.1484"/><text fill="#000000" font-family="sans-serif" font-size="14" lengthAdjust="spacing" textLength="204" x="405" y="781.4951">spotifyService : SpotifyService</text><line style="stroke:#181818;stroke-width:0.5;" x1="386" x2="631" y1="788.7969" y2="788.7969"/><ellipse cx="396" cy="802.4453" fill="#84BE84" rx="3" ry="3" style="stroke:#038048;stroke-width:1.0;"/><text fill="#000000" font-family="sans-serif" font-size="14" lengthAdjust="spacing" textLength="218" x="405" y="805.792">ack(context: RmqContext) : any</text><ellipse cx="396" cy="818.7422" fill="#84BE84" rx="3" ry="3" style="stroke:#038048;stroke-width:1.0;"/><text fill="#000000" font-family="sans-serif" font-size="14" lengthAdjust="spacing" textLength="221" x="405" y="822.0889">get(context: RmqContext) : void</text></g><!--class YoutubeController--><g id="elem_YoutubeController"><rect codeLine="48" fill="#F1F1F1" height="96.8906" id="YoutubeController" rx="2.5" ry="2.5" style="stroke:#181818;stroke-width:0.5;" width="255" x="381" y="864.5"/><ellipse cx="441.25" cy="880.5" fill="#ADD1B2" rx="11" ry="11" style="stroke:#181818;stroke-width:1.0;"/><path d="M444.2188,886.1406 Q443.6406,886.4375 443,886.5781 Q442.3594,886.7344 441.6563,886.7344 Q439.1563,886.7344 437.8281,885.0938 Q436.5156,883.4375 436.5156,880.3125 Q436.5156,877.1875 437.8281,875.5313 Q439.1563,873.875 441.6563,873.875 Q442.3594,873.875 443,874.0313 Q443.6563,874.1875 444.2188,874.4844 L444.2188,877.2031 Q443.5938,876.625 443,876.3594 Q442.4063,876.0781 441.7813,876.0781 Q440.4375,876.0781 439.75,877.1563 Q439.0625,878.2188 439.0625,880.3125 Q439.0625,882.4063 439.75,883.4844 Q440.4375,884.5469 441.7813,884.5469 Q442.4063,884.5469 443,884.2813 Q443.5938,884 444.2188,883.4219 L444.2188,886.1406 Z " fill="#000000"/><text fill="#000000" font-family="sans-serif" font-size="14" lengthAdjust="spacing" textLength="126" x="461.75" y="885.3467">YoutubeController</text><line style="stroke:#181818;stroke-width:0.5;" x1="382" x2="635" y1="896.5" y2="896.5"/><rect fill="none" height="6" style="stroke:#C82930;stroke-width:1.0;" width="6" x="389" y="907.1484"/><text fill="#000000" font-family="sans-serif" font-size="14" lengthAdjust="spacing" textLength="229" x="401" y="913.4951">youtubeService : YoutubeService</text><line style="stroke:#181818;stroke-width:0.5;" x1="382" x2="635" y1="920.7969" y2="920.7969"/><ellipse cx="392" cy="934.4453" fill="#84BE84" rx="3" ry="3" style="stroke:#038048;stroke-width:1.0;"/><text fill="#000000" font-family="sans-serif" font-size="14" lengthAdjust="spacing" textLength="218" x="401" y="937.792">ack(context: RmqContext) : any</text><ellipse cx="392" cy="950.7422" fill="#84BE84" rx="3" ry="3" style="stroke:#038048;stroke-width:1.0;"/><text fill="#000000" font-family="sans-serif" font-size="14" lengthAdjust="spacing" textLength="221" x="401" y="954.0889">get(context: RmqContext) : void</text></g><!--reverse link default to AuthController--><g id="link_default_AuthController"><path codeLine="17" d="M144.7738,471.5878 C165.7338,409.5778 217.46,277.33 311,187 C317.46,180.76 324.39,174.84 331.64,169.22 " fill="none" id="default-backto-AuthController" style="stroke:#181818;stroke-width:1.0;"/><polygon fill="none" points="139.01,488.64,150.4579,473.509,139.0897,469.6665,139.01,488.64" style="stroke:#181818;stroke-width:1.0;"/></g><!--reverse link default to DiscordController--><g id="link_default_DiscordController"><path codeLine="23" d="M158.8314,474.0844 C188.3614,431.4644 239.77,365.38 311,319 C333.39,304.42 359.33,292.75 384.86,283.52 " fill="none" id="default-backto-DiscordController" style="stroke:#181818;stroke-width:1.0;"/><polygon fill="none" points="148.58,488.88,163.7632,477.5015,153.8995,470.6673,148.58,488.88" style="stroke:#181818;stroke-width:1.0;"/></g><!--reverse link default to GmailController--><g id="link_default_GmailController"><path codeLine="29" d="M222.4775,482.7471 C254.8675,470.8571 276.28,463.16 311,451 C334.86,442.64 360.42,433.9 384.96,425.62 " fill="none" id="default-backto-GmailController" style="stroke:#181818;stroke-width:1.0;"/><polygon fill="none" points="205.58,488.95,224.5451,488.3796,220.4098,477.1146,205.58,488.95" style="stroke:#181818;stroke-width:1.0;"/></g><!--reverse link default to GoogleDriveController--><g id="link_default_GoogleDriveController"><path codeLine="35" d="M269,517 C302,517 320.18,517 354.69,517 " fill="none" id="default-backto-GoogleDriveController" style="stroke:#181818;stroke-width:1.0;"/><polygon fill="none" points="251,517,269,523,269,511,251,517" style="stroke:#181818;stroke-width:1.0;"/></g><!--reverse link default to InstagramController--><g id="link_default_InstagramController"><path codeLine="41" d="M222.4775,551.2529 C254.8675,563.1429 276.28,570.84 311,583 C330.36,589.78 350.84,596.81 370.98,603.65 " fill="none" id="default-backto-InstagramController" style="stroke:#181818;stroke-width:1.0;"/><polygon fill="none" points="205.58,545.05,220.4098,556.8854,224.5451,545.6204,205.58,545.05" style="stroke:#181818;stroke-width:1.0;"/></g><!--reverse link default to SpotifyController--><g id="link_default_SpotifyController"><path codeLine="47" d="M158.8314,559.9156 C188.3614,602.5356 239.77,668.62 311,715 C333.39,729.58 359.33,741.25 384.86,750.48 " fill="none" id="default-backto-SpotifyController" style="stroke:#181818;stroke-width:1.0;"/><polygon fill="none" points="148.58,545.12,153.8995,563.3327,163.7632,556.4985,148.58,545.12" style="stroke:#181818;stroke-width:1.0;"/></g><!--reverse link default to YoutubeController--><g id="link_default_YoutubeController"><path codeLine="53" d="M142.9296,562.6836 C161.7996,626.1536 210.76,763.15 311,847 C331.22,863.91 355.96,876.55 380.97,885.98 " fill="none" id="default-backto-YoutubeController" style="stroke:#181818;stroke-width:1.0;"/><polygon fill="none" points="137.8,545.43,137.1784,564.3935,148.6808,560.9737,137.8,545.43" style="stroke:#181818;stroke-width:1.0;"/></g><!--SRC=[jTJ1Ri8m30RWUvyYuhHfuWKGciH0cZXj6YUEMMDIYpHcYOjMRRpxoheiG8D43-sf-Hqtd-ggVejs9vqinPFCjzfHPTMS33d1JbhVbC1oPc33Waaur0KBXGvoHh9PWGe4b3kkHGbSaFAdqGR1D4bkfFTYf60ZAyCZyPM9vdfeZhlBoJ9yyaIybH_pzlvUJ8IqTNO8VREAYsFDaJ7WGljODl4At1vpQ3fcSNNJqt_tb71jowkZ4ZrC_yoFxNuwdjAlnO56p-3wTNdKTcdxzxpq0XwoE9FfztZSUTLX0WlqEJcL689gAt4EYxFWzb5eu6jxzeGgOUsY0lUvb6WIM7tC8_NvP3aaz9BppoJI1XOEzv32nke9kHCE2ay20tzfFKlT_3WIU0orI5zUH4F2KxJ0Nks8SLCdqBwjHFBgB1WIt4K5xfeghjvJ7qZTLY9tVHOCoUsYVW00]--></g></svg>