<?xml version="1.0" encoding="us-ascii" standalone="no"?><svg xmlns="http://www.w3.org/2000/svg" xmlns:xlink="http://www.w3.org/1999/xlink" contentStyleType="text/css" height="292px" preserveAspectRatio="none" style="width:790px;height:292px;" version="1.1" viewBox="0 0 790 292" width="790px" zoomAndPan="magnify"><defs/><g><!--class default--><g id="elem_default"><rect codeLine="4" fill="#F1F1F1" height="56.2969" id="default" rx="2.5" ry="2.5" style="stroke:#181818;stroke-width:0.5;" width="244" x="285.5" y="7"/><ellipse cx="379.75" cy="23" fill="#ADD1B2" rx="11" ry="11" style="stroke:#181818;stroke-width:1.0;"/><path d="M382.7188,28.6406 Q382.1406,28.9375 381.5,29.0781 Q380.8594,29.2344 380.1563,29.2344 Q377.6563,29.2344 376.3281,27.5938 Q375.0156,25.9375 375.0156,22.8125 Q375.0156,19.6875 376.3281,18.0313 Q377.6563,16.375 380.1563,16.375 Q380.8594,16.375 381.5,16.5313 Q382.1563,16.6875 382.7188,16.9844 L382.7188,19.7031 Q382.0938,19.125 381.5,18.8594 Q380.9063,18.5781 380.2813,18.5781 Q378.9375,18.5781 378.25,19.6563 Q377.5625,20.7188 377.5625,22.8125 Q377.5625,24.9063 378.25,25.9844 Q378.9375,27.0469 380.2813,27.0469 Q380.9063,27.0469 381.5,26.7813 Q382.0938,26.5 382.7188,25.9219 L382.7188,28.6406 Z " fill="#000000"/><text fill="#000000" font-family="sans-serif" font-size="14" lengthAdjust="spacing" textLength="47" x="400.25" y="27.8467">default</text><line style="stroke:#181818;stroke-width:0.5;" x1="286.5" x2="528.5" y1="39" y2="39"/><ellipse cx="296.5" cy="52.6484" fill="#84BE84" rx="3" ry="3" style="stroke:#038048;stroke-width:1.0;"/><text fill="#000000" font-family="sans-serif" font-size="14" lengthAdjust="spacing" textLength="218" x="305.5" y="55.9951">ack(context: RmqContext) : any</text></g><!--class AuthController--><g id="elem_AuthController"><rect codeLine="7" fill="#F1F1F1" height="162.0781" id="AuthController" rx="2.5" ry="2.5" style="stroke:#181818;stroke-width:0.5;" width="395" x="7" y="123"/><ellipse cx="150.75" cy="139" fill="#ADD1B2" rx="11" ry="11" style="stroke:#181818;stroke-width:1.0;"/><path d="M153.7188,144.6406 Q153.1406,144.9375 152.5,145.0781 Q151.8594,145.2344 151.1563,145.2344 Q148.6563,145.2344 147.3281,143.5938 Q146.0156,141.9375 146.0156,138.8125 Q146.0156,135.6875 147.3281,134.0313 Q148.6563,132.375 151.1563,132.375 Q151.8594,132.375 152.5,132.5313 Q153.1563,132.6875 153.7188,132.9844 L153.7188,135.7031 Q153.0938,135.125 152.5,134.8594 Q151.9063,134.5781 151.2813,134.5781 Q149.9375,134.5781 149.25,135.6563 Q148.5625,136.7188 148.5625,138.8125 Q148.5625,140.9063 149.25,141.9844 Q149.9375,143.0469 151.2813,143.0469 Q151.9063,143.0469 152.5,142.7813 Q153.0938,142.5 153.7188,141.9219 L153.7188,144.6406 Z " fill="#000000"/><text fill="#000000" font-family="sans-serif" font-size="14" lengthAdjust="spacing" textLength="99" x="171.25" y="143.8467">AuthController</text><line style="stroke:#181818;stroke-width:0.5;" x1="8" x2="401" y1="155" y2="155"/><rect fill="none" height="6" style="stroke:#C82930;stroke-width:1.0;" width="6" x="15" y="165.6484"/><text fill="#000000" font-family="sans-serif" font-size="14" lengthAdjust="spacing" textLength="176" x="27" y="171.9951">authService : AuthService</text><line style="stroke:#181818;stroke-width:0.5;" x1="8" x2="401" y1="179.2969" y2="179.2969"/><ellipse cx="18" cy="192.9453" fill="#84BE84" rx="3" ry="3" style="stroke:#038048;stroke-width:1.0;"/><text fill="#000000" font-family="sans-serif" font-size="14" lengthAdjust="spacing" textLength="218" x="27" y="196.292">ack(context: RmqContext) : any</text><ellipse cx="18" cy="209.2422" fill="#84BE84" rx="3" ry="3" style="stroke:#038048;stroke-width:1.0;"/><text fill="#000000" font-family="sans-serif" font-size="14" lengthAdjust="spacing" textLength="319" x="27" y="212.5889">me(context: RmqContext) : Promise&lt;default&gt;</text><ellipse cx="18" cy="225.5391" fill="#84BE84" rx="3" ry="3" style="stroke:#038048;stroke-width:1.0;"/><text fill="#000000" font-family="sans-serif" font-size="14" lengthAdjust="spacing" textLength="338" x="27" y="228.8857">oAuth(context: RmqContext) : Promise&lt;default&gt;</text><ellipse cx="18" cy="241.8359" fill="#84BE84" rx="3" ry="3" style="stroke:#038048;stroke-width:1.0;"/><text fill="#000000" font-family="sans-serif" font-size="14" lengthAdjust="spacing" textLength="350" x="27" y="245.1826">register(context: RmqContext) : Promise&lt;default&gt;</text><ellipse cx="18" cy="258.1328" fill="#84BE84" rx="3" ry="3" style="stroke:#038048;stroke-width:1.0;"/><text fill="#000000" font-family="sans-serif" font-size="14" lengthAdjust="spacing" textLength="338" x="27" y="261.4795">signIn(context: RmqContext) : Promise&lt;default&gt;</text><ellipse cx="18" cy="274.4297" fill="#84BE84" rx="3" ry="3" style="stroke:#038048;stroke-width:1.0;"/><text fill="#000000" font-family="sans-serif" font-size="14" lengthAdjust="spacing" textLength="369" x="27" y="277.7764">signOAuth(context: RmqContext) : Promise&lt;default&gt;</text></g><!--class DiscordController--><g id="elem_DiscordController"><rect codeLine="17" fill="#F1F1F1" height="96.8906" id="DiscordController" rx="2.5" ry="2.5" style="stroke:#181818;stroke-width:0.5;" width="346" x="437.5" y="155.5"/><ellipse cx="546.25" cy="171.5" fill="#ADD1B2" rx="11" ry="11" style="stroke:#181818;stroke-width:1.0;"/><path d="M549.2188,177.1406 Q548.6406,177.4375 548,177.5781 Q547.3594,177.7344 546.6563,177.7344 Q544.1563,177.7344 542.8281,176.0938 Q541.5156,174.4375 541.5156,171.3125 Q541.5156,168.1875 542.8281,166.5313 Q544.1563,164.875 546.6563,164.875 Q547.3594,164.875 548,165.0313 Q548.6563,165.1875 549.2188,165.4844 L549.2188,168.2031 Q548.5938,167.625 548,167.3594 Q547.4063,167.0781 546.7813,167.0781 Q545.4375,167.0781 544.75,168.1563 Q544.0625,169.2188 544.0625,171.3125 Q544.0625,173.4063 544.75,174.4844 Q545.4375,175.5469 546.7813,175.5469 Q547.4063,175.5469 548,175.2813 Q548.5938,175 549.2188,174.4219 L549.2188,177.1406 Z " fill="#000000"/><text fill="#000000" font-family="sans-serif" font-size="14" lengthAdjust="spacing" textLength="120" x="566.75" y="176.3467">DiscordController</text><line style="stroke:#181818;stroke-width:0.5;" x1="438.5" x2="782.5" y1="187.5" y2="187.5"/><rect fill="none" height="6" style="stroke:#C82930;stroke-width:1.0;" width="6" x="445.5" y="198.1484"/><text fill="#000000" font-family="sans-serif" font-size="14" lengthAdjust="spacing" textLength="217" x="457.5" y="204.4951">discordService : DiscordService</text><line style="stroke:#181818;stroke-width:0.5;" x1="438.5" x2="782.5" y1="211.7969" y2="211.7969"/><ellipse cx="448.5" cy="225.4453" fill="#84BE84" rx="3" ry="3" style="stroke:#038048;stroke-width:1.0;"/><text fill="#000000" font-family="sans-serif" font-size="14" lengthAdjust="spacing" textLength="218" x="457.5" y="228.792">ack(context: RmqContext) : any</text><ellipse cx="448.5" cy="241.7422" fill="#84BE84" rx="3" ry="3" style="stroke:#038048;stroke-width:1.0;"/><text fill="#000000" font-family="sans-serif" font-size="14" lengthAdjust="spacing" textLength="320" x="457.5" y="245.0889">get(context: RmqContext) : Promise&lt;default&gt;</text></g><!--reverse link default to AuthController--><g id="link_default_AuthController"><path codeLine="16" d="M360.5312,74.6378 C340.6512,90.9978 328.1,101.32 302.01,122.78 " fill="none" id="default-backto-AuthController" style="stroke:#181818;stroke-width:1.0;"/><polygon fill="none" points="374.43,63.2,356.7186,70.0049,364.3438,79.2708,374.43,63.2" style="stroke:#181818;stroke-width:1.0;"/></g><!--reverse link default to DiscordController--><g id="link_default_DiscordController"><path codeLine="22" d="M454.4686,74.6381 C484.6886,99.5081 516.16,125.39 552.42,155.22 " fill="none" id="default-backto-DiscordController" style="stroke:#181818;stroke-width:1.0;"/><polygon fill="none" points="440.57,63.2,450.6559,79.2709,458.2813,70.0052,440.57,63.2" style="stroke:#181818;stroke-width:1.0;"/></g><!--SRC=[fL5BRi8m4Dtd52DMhL0kW10IdqrNeFO4bZqa5hO7PYPLKU7kDKsZW6Wbedfbly_Cav_iVDeRDX4MnkugfYQv9GLYK3P9CeL9Yzex18nxFK94hSd9DRJr639YWn61aSEjQOAEuBE0VCPvx9EbfFYX4tYDXsLxVuO9c7GipfrltcXzuPX2GExifSdm6_AxjvWTy_xrqFHlJSI_91kcw0MdFvbdhPukMuPP62ilYZpC9RvABscuPpqeuBdeEvcUolBkgxi6LbuiiVkb1DSoVG-h6-3nAYhKV-I-3_W5]--></g></svg>