<?xml version="1.0" encoding="us-ascii" standalone="no"?><svg xmlns="http://www.w3.org/2000/svg" xmlns:xlink="http://www.w3.org/1999/xlink" contentStyleType="text/css" height="275px" preserveAspectRatio="none" style="width:1072px;height:275px;" version="1.1" viewBox="0 0 1072 275" width="1072px" zoomAndPan="magnify"><defs/><g><!--class default--><g id="elem_default"><rect codeLine="4" fill="#F1F1F1" height="56.2969" id="default" rx="2.5" ry="2.5" style="stroke:#181818;stroke-width:0.5;" width="244" x="429" y="7"/><ellipse cx="523.25" cy="23" fill="#ADD1B2" rx="11" ry="11" style="stroke:#181818;stroke-width:1.0;"/><path d="M526.2188,28.6406 Q525.6406,28.9375 525,29.0781 Q524.3594,29.2344 523.6563,29.2344 Q521.1563,29.2344 519.8281,27.5938 Q518.5156,25.9375 518.5156,22.8125 Q518.5156,19.6875 519.8281,18.0313 Q521.1563,16.375 523.6563,16.375 Q524.3594,16.375 525,16.5313 Q525.6563,16.6875 526.2188,16.9844 L526.2188,19.7031 Q525.5938,19.125 525,18.8594 Q524.4063,18.5781 523.7813,18.5781 Q522.4375,18.5781 521.75,19.6563 Q521.0625,20.7188 521.0625,22.8125 Q521.0625,24.9063 521.75,25.9844 Q522.4375,27.0469 523.7813,27.0469 Q524.4063,27.0469 525,26.7813 Q525.5938,26.5 526.2188,25.9219 L526.2188,28.6406 Z " fill="#000000"/><text fill="#000000" font-family="sans-serif" font-size="14" lengthAdjust="spacing" textLength="47" x="543.75" y="27.8467">default</text><line style="stroke:#181818;stroke-width:0.5;" x1="430" x2="672" y1="39" y2="39"/><ellipse cx="440" cy="52.6484" fill="#84BE84" rx="3" ry="3" style="stroke:#038048;stroke-width:1.0;"/><text fill="#000000" font-family="sans-serif" font-size="14" lengthAdjust="spacing" textLength="218" x="449" y="55.9951">ack(context: RmqContext) : any</text></g><!--class AuthController--><g id="elem_AuthController"><rect codeLine="7" fill="#F1F1F1" height="145.7813" id="AuthController" rx="2.5" ry="2.5" style="stroke:#181818;stroke-width:0.5;" width="376" x="7" y="123"/><ellipse cx="141.25" cy="139" fill="#ADD1B2" rx="11" ry="11" style="stroke:#181818;stroke-width:1.0;"/><path d="M144.2188,144.6406 Q143.6406,144.9375 143,145.0781 Q142.3594,145.2344 141.6563,145.2344 Q139.1563,145.2344 137.8281,143.5938 Q136.5156,141.9375 136.5156,138.8125 Q136.5156,135.6875 137.8281,134.0313 Q139.1563,132.375 141.6563,132.375 Q142.3594,132.375 143,132.5313 Q143.6563,132.6875 144.2188,132.9844 L144.2188,135.7031 Q143.5938,135.125 143,134.8594 Q142.4063,134.5781 141.7813,134.5781 Q140.4375,134.5781 139.75,135.6563 Q139.0625,136.7188 139.0625,138.8125 Q139.0625,140.9063 139.75,141.9844 Q140.4375,143.0469 141.7813,143.0469 Q142.4063,143.0469 143,142.7813 Q143.5938,142.5 144.2188,141.9219 L144.2188,144.6406 Z " fill="#000000"/><text fill="#000000" font-family="sans-serif" font-size="14" lengthAdjust="spacing" textLength="99" x="161.75" y="143.8467">AuthController</text><line style="stroke:#181818;stroke-width:0.5;" x1="8" x2="382" y1="155" y2="155"/><rect fill="none" height="6" style="stroke:#C82930;stroke-width:1.0;" width="6" x="15" y="165.6484"/><text fill="#000000" font-family="sans-serif" font-size="14" lengthAdjust="spacing" textLength="176" x="27" y="171.9951">authService : AuthService</text><line style="stroke:#181818;stroke-width:0.5;" x1="8" x2="382" y1="179.2969" y2="179.2969"/><ellipse cx="18" cy="192.9453" fill="#84BE84" rx="3" ry="3" style="stroke:#038048;stroke-width:1.0;"/><text fill="#000000" font-family="sans-serif" font-size="14" lengthAdjust="spacing" textLength="218" x="27" y="196.292">ack(context: RmqContext) : any</text><ellipse cx="18" cy="209.2422" fill="#84BE84" rx="3" ry="3" style="stroke:#038048;stroke-width:1.0;"/><text fill="#000000" font-family="sans-serif" font-size="14" lengthAdjust="spacing" textLength="319" x="27" y="212.5889">me(context: RmqContext) : Promise&lt;default&gt;</text><ellipse cx="18" cy="225.5391" fill="#84BE84" rx="3" ry="3" style="stroke:#038048;stroke-width:1.0;"/><text fill="#000000" font-family="sans-serif" font-size="14" lengthAdjust="spacing" textLength="338" x="27" y="228.8857">oAuth(context: RmqContext) : Promise&lt;default&gt;</text><ellipse cx="18" cy="241.8359" fill="#84BE84" rx="3" ry="3" style="stroke:#038048;stroke-width:1.0;"/><text fill="#000000" font-family="sans-serif" font-size="14" lengthAdjust="spacing" textLength="350" x="27" y="245.1826">register(context: RmqContext) : Promise&lt;default&gt;</text><ellipse cx="18" cy="258.1328" fill="#84BE84" rx="3" ry="3" style="stroke:#038048;stroke-width:1.0;"/><text fill="#000000" font-family="sans-serif" font-size="14" lengthAdjust="spacing" textLength="338" x="27" y="261.4795">signIn(context: RmqContext) : Promise&lt;default&gt;</text></g><!--class CronController--><g id="elem_CronController"><rect codeLine="16" fill="#F1F1F1" height="96.8906" id="CronController" rx="2.5" ry="2.5" style="stroke:#181818;stroke-width:0.5;" width="266" x="418" y="147.5"/><ellipse cx="496.75" cy="163.5" fill="#ADD1B2" rx="11" ry="11" style="stroke:#181818;stroke-width:1.0;"/><path d="M499.7188,169.1406 Q499.1406,169.4375 498.5,169.5781 Q497.8594,169.7344 497.1563,169.7344 Q494.6563,169.7344 493.3281,168.0938 Q492.0156,166.4375 492.0156,163.3125 Q492.0156,160.1875 493.3281,158.5313 Q494.6563,156.875 497.1563,156.875 Q497.8594,156.875 498.5,157.0313 Q499.1563,157.1875 499.7188,157.4844 L499.7188,160.2031 Q499.0938,159.625 498.5,159.3594 Q497.9063,159.0781 497.2813,159.0781 Q495.9375,159.0781 495.25,160.1563 Q494.5625,161.2188 494.5625,163.3125 Q494.5625,165.4063 495.25,166.4844 Q495.9375,167.5469 497.2813,167.5469 Q497.9063,167.5469 498.5,167.2813 Q499.0938,167 499.7188,166.4219 L499.7188,169.1406 Z " fill="#000000"/><text fill="#000000" font-family="sans-serif" font-size="14" lengthAdjust="spacing" textLength="100" x="517.25" y="168.3467">CronController</text><line style="stroke:#181818;stroke-width:0.5;" x1="419" x2="683" y1="179.5" y2="179.5"/><rect fill="none" height="6" style="stroke:#C82930;stroke-width:1.0;" width="6" x="426" y="190.1484"/><text fill="#000000" font-family="sans-serif" font-size="14" lengthAdjust="spacing" textLength="177" x="438" y="196.4951">cronService : CronService</text><line style="stroke:#181818;stroke-width:0.5;" x1="419" x2="683" y1="203.7969" y2="203.7969"/><ellipse cx="429" cy="217.4453" fill="#84BE84" rx="3" ry="3" style="stroke:#038048;stroke-width:1.0;"/><text fill="#000000" font-family="sans-serif" font-size="14" lengthAdjust="spacing" textLength="218" x="438" y="220.792">ack(context: RmqContext) : any</text><ellipse cx="429" cy="233.7422" fill="#84BE84" rx="3" ry="3" style="stroke:#038048;stroke-width:1.0;"/><text fill="#000000" font-family="sans-serif" font-size="14" lengthAdjust="spacing" textLength="240" x="438" y="237.0889">get(context: RmqContext) : default</text></g><!--class DiscordController--><g id="elem_DiscordController"><rect codeLine="22" fill="#F1F1F1" height="96.8906" id="DiscordController" rx="2.5" ry="2.5" style="stroke:#181818;stroke-width:0.5;" width="346" x="719" y="147.5"/><ellipse cx="827.75" cy="163.5" fill="#ADD1B2" rx="11" ry="11" style="stroke:#181818;stroke-width:1.0;"/><path d="M830.7188,169.1406 Q830.1406,169.4375 829.5,169.5781 Q828.8594,169.7344 828.1563,169.7344 Q825.6563,169.7344 824.3281,168.0938 Q823.0156,166.4375 823.0156,163.3125 Q823.0156,160.1875 824.3281,158.5313 Q825.6563,156.875 828.1563,156.875 Q828.8594,156.875 829.5,157.0313 Q830.1563,157.1875 830.7188,157.4844 L830.7188,160.2031 Q830.0938,159.625 829.5,159.3594 Q828.9063,159.0781 828.2813,159.0781 Q826.9375,159.0781 826.25,160.1563 Q825.5625,161.2188 825.5625,163.3125 Q825.5625,165.4063 826.25,166.4844 Q826.9375,167.5469 828.2813,167.5469 Q828.9063,167.5469 829.5,167.2813 Q830.0938,167 830.7188,166.4219 L830.7188,169.1406 Z " fill="#000000"/><text fill="#000000" font-family="sans-serif" font-size="14" lengthAdjust="spacing" textLength="120" x="848.25" y="168.3467">DiscordController</text><line style="stroke:#181818;stroke-width:0.5;" x1="720" x2="1064" y1="179.5" y2="179.5"/><rect fill="none" height="6" style="stroke:#C82930;stroke-width:1.0;" width="6" x="727" y="190.1484"/><text fill="#000000" font-family="sans-serif" font-size="14" lengthAdjust="spacing" textLength="217" x="739" y="196.4951">discordService : DiscordService</text><line style="stroke:#181818;stroke-width:0.5;" x1="720" x2="1064" y1="203.7969" y2="203.7969"/><ellipse cx="730" cy="217.4453" fill="#84BE84" rx="3" ry="3" style="stroke:#038048;stroke-width:1.0;"/><text fill="#000000" font-family="sans-serif" font-size="14" lengthAdjust="spacing" textLength="218" x="739" y="220.792">ack(context: RmqContext) : any</text><ellipse cx="730" cy="233.7422" fill="#84BE84" rx="3" ry="3" style="stroke:#038048;stroke-width:1.0;"/><text fill="#000000" font-family="sans-serif" font-size="14" lengthAdjust="spacing" textLength="320" x="739" y="237.0889">get(context: RmqContext) : Promise&lt;default&gt;</text></g><!--reverse link default to AuthController--><g id="link_default_AuthController"><path codeLine="15" d="M473.7742,70.4893 C436.7342,87.0293 403.94,101.68 356.33,122.95 " fill="none" id="default-backto-AuthController" style="stroke:#181818;stroke-width:1.0;"/><polygon fill="none" points="490.21,63.15,471.3278,65.0107,476.2207,75.9679,490.21,63.15" style="stroke:#181818;stroke-width:1.0;"/></g><!--reverse link default to CronController--><g id="link_default_CronController"><path codeLine="21" d="M551,81.33 C551,104.42 551,120.01 551,147.49 " fill="none" id="default-backto-CronController" style="stroke:#181818;stroke-width:1.0;"/><polygon fill="none" points="551,63.33,545,81.33,557,81.33,551,63.33" style="stroke:#181818;stroke-width:1.0;"/></g><!--reverse link default to DiscordController--><g id="link_default_DiscordController"><path codeLine="27" d="M625.544,70.7562 C675.004,93.8162 730.84,119.85 789.87,147.38 " fill="none" id="default-backto-DiscordController" style="stroke:#181818;stroke-width:1.0;"/><polygon fill="none" points="609.23,63.15,623.0086,76.1942,628.0794,65.3182,609.23,63.15" style="stroke:#181818;stroke-width:1.0;"/></g><!--SRC=[hP11Ri8m44NtESM8LL6L2o1K2SAckmfEODb3Oc5xw7Y2G2rthsc8t9OW1QbUsN_-7p_zkBDXhrXvM2gzgvdQO2fon22iGamZ358qrY2Wtyi9F4f39lwKjXPTKhHJCSB4u5QrJYRmKK0wpsdjawOWU9GPhFrxrTsdC0CLJiMvporQQIup9kUG-tYfahn1FbYDAR78hr7RlpqUxrdUcBoDEByoltH-klpoM8Injb6G7qj5MuVNC3fpBdAvyy-olEcihx9Y2WDLwYJdAgly6bzbZNBFSqKReFo3qrEkRDJ4PW3KT9FCkleb_0lkY7Pl0Ry0]--></g></svg>