<?xml version="1.0" encoding="us-ascii" standalone="no"?><svg xmlns="http://www.w3.org/2000/svg" xmlns:xlink="http://www.w3.org/1999/xlink" contentStyleType="text/css" height="324px" preserveAspectRatio="none" style="width:1361px;height:324px;" version="1.1" viewBox="0 0 1361 324" width="1361px" zoomAndPan="magnify"><defs/><g><!--class default--><g id="elem_default"><rect codeLine="4" fill="#F1F1F1" height="56.2969" id="default" rx="2.5" ry="2.5" style="stroke:#181818;stroke-width:0.5;" width="244" x="667" y="7"/><ellipse cx="761.25" cy="23" fill="#ADD1B2" rx="11" ry="11" style="stroke:#181818;stroke-width:1.0;"/><path d="M764.2188,28.6406 Q763.6406,28.9375 763,29.0781 Q762.3594,29.2344 761.6563,29.2344 Q759.1563,29.2344 757.8281,27.5938 Q756.5156,25.9375 756.5156,22.8125 Q756.5156,19.6875 757.8281,18.0313 Q759.1563,16.375 761.6563,16.375 Q762.3594,16.375 763,16.5313 Q763.6563,16.6875 764.2188,16.9844 L764.2188,19.7031 Q763.5938,19.125 763,18.8594 Q762.4063,18.5781 761.7813,18.5781 Q760.4375,18.5781 759.75,19.6563 Q759.0625,20.7188 759.0625,22.8125 Q759.0625,24.9063 759.75,25.9844 Q760.4375,27.0469 761.7813,27.0469 Q762.4063,27.0469 763,26.7813 Q763.5938,26.5 764.2188,25.9219 L764.2188,28.6406 Z " fill="#000000"/><text fill="#000000" font-family="sans-serif" font-size="14" lengthAdjust="spacing" textLength="47" x="781.75" y="27.8467">default</text><line style="stroke:#181818;stroke-width:0.5;" x1="668" x2="910" y1="39" y2="39"/><ellipse cx="678" cy="52.6484" fill="#84BE84" rx="3" ry="3" style="stroke:#038048;stroke-width:1.0;"/><text fill="#000000" font-family="sans-serif" font-size="14" lengthAdjust="spacing" textLength="218" x="687" y="55.9951">ack(context: RmqContext) : any</text></g><!--class AuthController--><g id="elem_AuthController"><rect codeLine="7" fill="#F1F1F1" height="194.6719" id="AuthController" rx="2.5" ry="2.5" style="stroke:#181818;stroke-width:0.5;" width="426" x="7" y="123"/><ellipse cx="166.25" cy="139" fill="#ADD1B2" rx="11" ry="11" style="stroke:#181818;stroke-width:1.0;"/><path d="M169.2188,144.6406 Q168.6406,144.9375 168,145.0781 Q167.3594,145.2344 166.6563,145.2344 Q164.1563,145.2344 162.8281,143.5938 Q161.5156,141.9375 161.5156,138.8125 Q161.5156,135.6875 162.8281,134.0313 Q164.1563,132.375 166.6563,132.375 Q167.3594,132.375 168,132.5313 Q168.6563,132.6875 169.2188,132.9844 L169.2188,135.7031 Q168.5938,135.125 168,134.8594 Q167.4063,134.5781 166.7813,134.5781 Q165.4375,134.5781 164.75,135.6563 Q164.0625,136.7188 164.0625,138.8125 Q164.0625,140.9063 164.75,141.9844 Q165.4375,143.0469 166.7813,143.0469 Q167.4063,143.0469 168,142.7813 Q168.5938,142.5 169.2188,141.9219 L169.2188,144.6406 Z " fill="#000000"/><text fill="#000000" font-family="sans-serif" font-size="14" lengthAdjust="spacing" textLength="99" x="186.75" y="143.8467">AuthController</text><line style="stroke:#181818;stroke-width:0.5;" x1="8" x2="432" y1="155" y2="155"/><rect fill="none" height="6" style="stroke:#C82930;stroke-width:1.0;" width="6" x="15" y="165.6484"/><text fill="#000000" font-family="sans-serif" font-size="14" lengthAdjust="spacing" textLength="176" x="27" y="171.9951">authService : AuthService</text><line style="stroke:#181818;stroke-width:0.5;" x1="8" x2="432" y1="179.2969" y2="179.2969"/><ellipse cx="18" cy="192.9453" fill="#84BE84" rx="3" ry="3" style="stroke:#038048;stroke-width:1.0;"/><text fill="#000000" font-family="sans-serif" font-size="14" lengthAdjust="spacing" textLength="218" x="27" y="196.292">ack(context: RmqContext) : any</text><ellipse cx="18" cy="209.2422" fill="#84BE84" rx="3" ry="3" style="stroke:#038048;stroke-width:1.0;"/><text fill="#000000" font-family="sans-serif" font-size="14" lengthAdjust="spacing" textLength="397" x="27" y="212.5889">connectOAuth(context: RmqContext) : Promise&lt;default&gt;</text><ellipse cx="18" cy="225.5391" fill="#84BE84" rx="3" ry="3" style="stroke:#038048;stroke-width:1.0;"/><text fill="#000000" font-family="sans-serif" font-size="14" lengthAdjust="spacing" textLength="319" x="27" y="228.8857">me(context: RmqContext) : Promise&lt;default&gt;</text><ellipse cx="18" cy="241.8359" fill="#84BE84" rx="3" ry="3" style="stroke:#038048;stroke-width:1.0;"/><text fill="#000000" font-family="sans-serif" font-size="14" lengthAdjust="spacing" textLength="269" x="27" y="245.1826">recoverPassword() : Promise&lt;default&gt;</text><ellipse cx="18" cy="258.1328" fill="#84BE84" rx="3" ry="3" style="stroke:#038048;stroke-width:1.0;"/><text fill="#000000" font-family="sans-serif" font-size="14" lengthAdjust="spacing" textLength="350" x="27" y="261.4795">register(context: RmqContext) : Promise&lt;default&gt;</text><ellipse cx="18" cy="274.4297" fill="#84BE84" rx="3" ry="3" style="stroke:#038048;stroke-width:1.0;"/><text fill="#000000" font-family="sans-serif" font-size="14" lengthAdjust="spacing" textLength="400" x="27" y="277.7764">resetPassword(context: RmqContext) : Promise&lt;default&gt;</text><ellipse cx="18" cy="290.7266" fill="#84BE84" rx="3" ry="3" style="stroke:#038048;stroke-width:1.0;"/><text fill="#000000" font-family="sans-serif" font-size="14" lengthAdjust="spacing" textLength="338" x="27" y="294.0732">signIn(context: RmqContext) : Promise&lt;default&gt;</text><ellipse cx="18" cy="307.0234" fill="#84BE84" rx="3" ry="3" style="stroke:#038048;stroke-width:1.0;"/><text fill="#000000" font-family="sans-serif" font-size="14" lengthAdjust="spacing" textLength="369" x="27" y="310.3701">signOAuth(context: RmqContext) : Promise&lt;default&gt;</text></g><!--class DiscordController--><g id="elem_DiscordController"><rect codeLine="19" fill="#F1F1F1" height="113.1875" id="DiscordController" rx="2.5" ry="2.5" style="stroke:#181818;stroke-width:0.5;" width="322" x="468" y="164"/><ellipse cx="564.75" cy="180" fill="#ADD1B2" rx="11" ry="11" style="stroke:#181818;stroke-width:1.0;"/><path d="M567.7188,185.6406 Q567.1406,185.9375 566.5,186.0781 Q565.8594,186.2344 565.1563,186.2344 Q562.6563,186.2344 561.3281,184.5938 Q560.0156,182.9375 560.0156,179.8125 Q560.0156,176.6875 561.3281,175.0313 Q562.6563,173.375 565.1563,173.375 Q565.8594,173.375 566.5,173.5313 Q567.1563,173.6875 567.7188,173.9844 L567.7188,176.7031 Q567.0938,176.125 566.5,175.8594 Q565.9063,175.5781 565.2813,175.5781 Q563.9375,175.5781 563.25,176.6563 Q562.5625,177.7188 562.5625,179.8125 Q562.5625,181.9063 563.25,182.9844 Q563.9375,184.0469 565.2813,184.0469 Q565.9063,184.0469 566.5,183.7813 Q567.0938,183.5 567.7188,182.9219 L567.7188,185.6406 Z " fill="#000000"/><text fill="#000000" font-family="sans-serif" font-size="14" lengthAdjust="spacing" textLength="120" x="585.25" y="184.8467">DiscordController</text><line style="stroke:#181818;stroke-width:0.5;" x1="469" x2="789" y1="196" y2="196"/><rect fill="none" height="6" style="stroke:#C82930;stroke-width:1.0;" width="6" x="476" y="206.6484"/><text fill="#000000" font-family="sans-serif" font-size="14" lengthAdjust="spacing" textLength="217" x="488" y="212.9951">discordService : DiscordService</text><line style="stroke:#181818;stroke-width:0.5;" x1="469" x2="789" y1="220.2969" y2="220.2969"/><ellipse cx="479" cy="233.9453" fill="#84BE84" rx="3" ry="3" style="stroke:#038048;stroke-width:1.0;"/><text fill="#000000" font-family="sans-serif" font-size="14" lengthAdjust="spacing" textLength="218" x="488" y="237.292">ack(context: RmqContext) : any</text><ellipse cx="479" cy="250.2422" fill="#84BE84" rx="3" ry="3" style="stroke:#038048;stroke-width:1.0;"/><text fill="#000000" font-family="sans-serif" font-size="14" lengthAdjust="spacing" textLength="221" x="488" y="253.5889">get(context: RmqContext) : void</text><ellipse cx="479" cy="266.5391" fill="#84BE84" rx="3" ry="3" style="stroke:#038048;stroke-width:1.0;"/><text fill="#000000" font-family="sans-serif" font-size="14" lengthAdjust="spacing" textLength="296" x="488" y="269.8857">sendMessage(context: RmqContext) : void</text></g><!--class SpotifyController--><g id="elem_SpotifyController"><rect codeLine="26" fill="#F1F1F1" height="96.8906" id="SpotifyController" rx="2.5" ry="2.5" style="stroke:#181818;stroke-width:0.5;" width="247" x="825.5" y="172"/><ellipse cx="888.25" cy="188" fill="#ADD1B2" rx="11" ry="11" style="stroke:#181818;stroke-width:1.0;"/><path d="M891.2188,193.6406 Q890.6406,193.9375 890,194.0781 Q889.3594,194.2344 888.6563,194.2344 Q886.1563,194.2344 884.8281,192.5938 Q883.5156,190.9375 883.5156,187.8125 Q883.5156,184.6875 884.8281,183.0313 Q886.1563,181.375 888.6563,181.375 Q889.3594,181.375 890,181.5313 Q890.6563,181.6875 891.2188,181.9844 L891.2188,184.7031 Q890.5938,184.125 890,183.8594 Q889.4063,183.5781 888.7813,183.5781 Q887.4375,183.5781 886.75,184.6563 Q886.0625,185.7188 886.0625,187.8125 Q886.0625,189.9063 886.75,190.9844 Q887.4375,192.0469 888.7813,192.0469 Q889.4063,192.0469 890,191.7813 Q890.5938,191.5 891.2188,190.9219 L891.2188,193.6406 Z " fill="#000000"/><text fill="#000000" font-family="sans-serif" font-size="14" lengthAdjust="spacing" textLength="113" x="908.75" y="192.8467">SpotifyController</text><line style="stroke:#181818;stroke-width:0.5;" x1="826.5" x2="1071.5" y1="204" y2="204"/><rect fill="none" height="6" style="stroke:#C82930;stroke-width:1.0;" width="6" x="833.5" y="214.6484"/><text fill="#000000" font-family="sans-serif" font-size="14" lengthAdjust="spacing" textLength="204" x="845.5" y="220.9951">spotifyService : SpotifyService</text><line style="stroke:#181818;stroke-width:0.5;" x1="826.5" x2="1071.5" y1="228.2969" y2="228.2969"/><ellipse cx="836.5" cy="241.9453" fill="#84BE84" rx="3" ry="3" style="stroke:#038048;stroke-width:1.0;"/><text fill="#000000" font-family="sans-serif" font-size="14" lengthAdjust="spacing" textLength="218" x="845.5" y="245.292">ack(context: RmqContext) : any</text><ellipse cx="836.5" cy="258.2422" fill="#84BE84" rx="3" ry="3" style="stroke:#038048;stroke-width:1.0;"/><text fill="#000000" font-family="sans-serif" font-size="14" lengthAdjust="spacing" textLength="221" x="845.5" y="261.5889">get(context: RmqContext) : void</text></g><!--class TimerController--><g id="elem_TimerController"><rect codeLine="32" fill="#F1F1F1" height="96.8906" id="TimerController" rx="2.5" ry="2.5" style="stroke:#181818;stroke-width:0.5;" width="247" x="1107.5" y="172"/><ellipse cx="1173.75" cy="188" fill="#ADD1B2" rx="11" ry="11" style="stroke:#181818;stroke-width:1.0;"/><path d="M1176.7188,193.6406 Q1176.1406,193.9375 1175.5,194.0781 Q1174.8594,194.2344 1174.1563,194.2344 Q1171.6563,194.2344 1170.3281,192.5938 Q1169.0156,190.9375 1169.0156,187.8125 Q1169.0156,184.6875 1170.3281,183.0313 Q1171.6563,181.375 1174.1563,181.375 Q1174.8594,181.375 1175.5,181.5313 Q1176.1563,181.6875 1176.7188,181.9844 L1176.7188,184.7031 Q1176.0938,184.125 1175.5,183.8594 Q1174.9063,183.5781 1174.2813,183.5781 Q1172.9375,183.5781 1172.25,184.6563 Q1171.5625,185.7188 1171.5625,187.8125 Q1171.5625,189.9063 1172.25,190.9844 Q1172.9375,192.0469 1174.2813,192.0469 Q1174.9063,192.0469 1175.5,191.7813 Q1176.0938,191.5 1176.7188,190.9219 L1176.7188,193.6406 Z " fill="#000000"/><text fill="#000000" font-family="sans-serif" font-size="14" lengthAdjust="spacing" textLength="106" x="1194.25" y="192.8467">TimerController</text><line style="stroke:#181818;stroke-width:0.5;" x1="1108.5" x2="1353.5" y1="204" y2="204"/><rect fill="none" height="6" style="stroke:#C82930;stroke-width:1.0;" width="6" x="1115.5" y="214.6484"/><text fill="#000000" font-family="sans-serif" font-size="14" lengthAdjust="spacing" textLength="187" x="1127.5" y="220.9951">timerService : TimerService</text><line style="stroke:#181818;stroke-width:0.5;" x1="1108.5" x2="1353.5" y1="228.2969" y2="228.2969"/><ellipse cx="1118.5" cy="241.9453" fill="#84BE84" rx="3" ry="3" style="stroke:#038048;stroke-width:1.0;"/><text fill="#000000" font-family="sans-serif" font-size="14" lengthAdjust="spacing" textLength="218" x="1127.5" y="245.292">ack(context: RmqContext) : any</text><ellipse cx="1118.5" cy="258.2422" fill="#84BE84" rx="3" ry="3" style="stroke:#038048;stroke-width:1.0;"/><text fill="#000000" font-family="sans-serif" font-size="14" lengthAdjust="spacing" textLength="221" x="1127.5" y="261.5889">get(context: RmqContext) : void</text></g><!--reverse link default to AuthController--><g id="link_default_AuthController"><path codeLine="18" d="M649.4245,66.9181 C584.3545,82.3281 520.84,99.19 450,123 C444.46,124.86 438.86,126.8 433.23,128.79 " fill="none" id="default-backto-AuthController" style="stroke:#181818;stroke-width:1.0;"/><polygon fill="none" points="666.94,62.77,648.0418,61.0796,650.8072,72.7566,666.94,62.77" style="stroke:#181818;stroke-width:1.0;"/></g><!--reverse link default to DiscordController--><g id="link_default_DiscordController"><path codeLine="25" d="M753.5624,76.6486 C730.5324,103.0686 706.63,130.47 677.52,163.86 " fill="none" id="default-backto-DiscordController" style="stroke:#181818;stroke-width:1.0;"/><polygon fill="none" points="765.39,63.08,749.0395,72.7061,758.0853,80.5912,765.39,63.08" style="stroke:#181818;stroke-width:1.0;"/></g><!--reverse link default to SpotifyController--><g id="link_default_SpotifyController"><path codeLine="31" d="M824.4398,76.6467 C849.2998,105.1567 877.11,137.06 907.27,171.64 " fill="none" id="default-backto-SpotifyController" style="stroke:#181818;stroke-width:1.0;"/><polygon fill="none" points="812.61,63.08,819.9176,80.59,828.9621,72.7034,812.61,63.08" style="stroke:#181818;stroke-width:1.0;"/></g><!--reverse link default to TimerController--><g id="link_default_TimerController"><path codeLine="37" d="M928.6763,66.3401 C984.6763,80.5601 1033.55,96.37 1090,123 C1117.9,136.16 1146.4,154.56 1170.41,171.76 " fill="none" id="default-backto-TimerController" style="stroke:#181818;stroke-width:1.0;"/><polygon fill="none" points="911.23,61.91,927.1996,72.1556,930.153,60.5247,911.23,61.91" style="stroke:#181818;stroke-width:1.0;"/></g><!--SRC=[jL7BRi8m4BpdAonEL1K_W50b2fSUggB23rZs9h7m8zrTQ57BlzTfI0DDG4GgFjcpCwiP3wsDBoHA9nwbMcSODbxFWWqe6AMdE0BFIMuq2705xuG3peEcOoWrO2EYh2GI0msft5WUYCz4n7CVrmvLy0mVF1QlxcrMtU_4M4Y_I_QrRhhXl9nXi1QmbezaX9U0MwCWAgRDwwhjFvmuzw3ufHIV8oymE4CmERX_g9GE-l4HLDW2BcAWzu1wU8cP6MB0lli9-7TxBocPp3_v_ff-lxPFcludNwDHgzQwxRaX5JDq5AwhITFv_0IullOC-1nd6um-H0Ildu58Pd2Ht0xMJb1dMnQ1JRhho4RLfCcsF07-BrlRRjjKRNTb7627MIxnnkhgw7bBet_jV0C0]--></g></svg>