<?xml version="1.0" encoding="us-ascii" standalone="no"?><svg xmlns="http://www.w3.org/2000/svg" xmlns:xlink="http://www.w3.org/1999/xlink" contentStyleType="text/css" height="324px" preserveAspectRatio="none" style="width:1803px;height:324px;" version="1.1" viewBox="0 0 1803 324" width="1803px" zoomAndPan="magnify"><defs/><g><!--class default--><g id="elem_default"><rect codeLine="4" fill="#F1F1F1" height="56.2969" id="default" rx="2.5" ry="2.5" style="stroke:#181818;stroke-width:0.5;" width="244" x="907" y="7"/><ellipse cx="1001.25" cy="23" fill="#ADD1B2" rx="11" ry="11" style="stroke:#181818;stroke-width:1.0;"/><path d="M1004.2188,28.6406 Q1003.6406,28.9375 1003,29.0781 Q1002.3594,29.2344 1001.6563,29.2344 Q999.1563,29.2344 997.8281,27.5938 Q996.5156,25.9375 996.5156,22.8125 Q996.5156,19.6875 997.8281,18.0313 Q999.1563,16.375 1001.6563,16.375 Q1002.3594,16.375 1003,16.5313 Q1003.6563,16.6875 1004.2188,16.9844 L1004.2188,19.7031 Q1003.5938,19.125 1003,18.8594 Q1002.4063,18.5781 1001.7813,18.5781 Q1000.4375,18.5781 999.75,19.6563 Q999.0625,20.7188 999.0625,22.8125 Q999.0625,24.9063 999.75,25.9844 Q1000.4375,27.0469 1001.7813,27.0469 Q1002.4063,27.0469 1003,26.7813 Q1003.5938,26.5 1004.2188,25.9219 L1004.2188,28.6406 Z " fill="#000000"/><text fill="#000000" font-family="sans-serif" font-size="14" lengthAdjust="spacing" textLength="47" x="1021.75" y="27.8467">default</text><line style="stroke:#181818;stroke-width:0.5;" x1="908" x2="1150" y1="39" y2="39"/><ellipse cx="918" cy="52.6484" fill="#84BE84" rx="3" ry="3" style="stroke:#038048;stroke-width:1.0;"/><text fill="#000000" font-family="sans-serif" font-size="14" lengthAdjust="spacing" textLength="218" x="927" y="55.9951">ack(context: RmqContext) : any</text></g><!--class AuthController--><g id="elem_AuthController"><rect codeLine="7" fill="#F1F1F1" height="194.6719" id="AuthController" rx="2.5" ry="2.5" style="stroke:#181818;stroke-width:0.5;" width="426" x="7" y="123"/><ellipse cx="166.25" cy="139" fill="#ADD1B2" rx="11" ry="11" style="stroke:#181818;stroke-width:1.0;"/><path d="M169.2188,144.6406 Q168.6406,144.9375 168,145.0781 Q167.3594,145.2344 166.6563,145.2344 Q164.1563,145.2344 162.8281,143.5938 Q161.5156,141.9375 161.5156,138.8125 Q161.5156,135.6875 162.8281,134.0313 Q164.1563,132.375 166.6563,132.375 Q167.3594,132.375 168,132.5313 Q168.6563,132.6875 169.2188,132.9844 L169.2188,135.7031 Q168.5938,135.125 168,134.8594 Q167.4063,134.5781 166.7813,134.5781 Q165.4375,134.5781 164.75,135.6563 Q164.0625,136.7188 164.0625,138.8125 Q164.0625,140.9063 164.75,141.9844 Q165.4375,143.0469 166.7813,143.0469 Q167.4063,143.0469 168,142.7813 Q168.5938,142.5 169.2188,141.9219 L169.2188,144.6406 Z " fill="#000000"/><text fill="#000000" font-family="sans-serif" font-size="14" lengthAdjust="spacing" textLength="99" x="186.75" y="143.8467">AuthController</text><line style="stroke:#181818;stroke-width:0.5;" x1="8" x2="432" y1="155" y2="155"/><rect fill="none" height="6" style="stroke:#C82930;stroke-width:1.0;" width="6" x="15" y="165.6484"/><text fill="#000000" font-family="sans-serif" font-size="14" lengthAdjust="spacing" textLength="176" x="27" y="171.9951">authService : AuthService</text><line style="stroke:#181818;stroke-width:0.5;" x1="8" x2="432" y1="179.2969" y2="179.2969"/><ellipse cx="18" cy="192.9453" fill="#84BE84" rx="3" ry="3" style="stroke:#038048;stroke-width:1.0;"/><text fill="#000000" font-family="sans-serif" font-size="14" lengthAdjust="spacing" textLength="218" x="27" y="196.292">ack(context: RmqContext) : any</text><ellipse cx="18" cy="209.2422" fill="#84BE84" rx="3" ry="3" style="stroke:#038048;stroke-width:1.0;"/><text fill="#000000" font-family="sans-serif" font-size="14" lengthAdjust="spacing" textLength="397" x="27" y="212.5889">connectOAuth(context: RmqContext) : Promise&lt;default&gt;</text><ellipse cx="18" cy="225.5391" fill="#84BE84" rx="3" ry="3" style="stroke:#038048;stroke-width:1.0;"/><text fill="#000000" font-family="sans-serif" font-size="14" lengthAdjust="spacing" textLength="319" x="27" y="228.8857">me(context: RmqContext) : Promise&lt;default&gt;</text><ellipse cx="18" cy="241.8359" fill="#84BE84" rx="3" ry="3" style="stroke:#038048;stroke-width:1.0;"/><text fill="#000000" font-family="sans-serif" font-size="14" lengthAdjust="spacing" textLength="269" x="27" y="245.1826">recoverPassword() : Promise&lt;default&gt;</text><ellipse cx="18" cy="258.1328" fill="#84BE84" rx="3" ry="3" style="stroke:#038048;stroke-width:1.0;"/><text fill="#000000" font-family="sans-serif" font-size="14" lengthAdjust="spacing" textLength="350" x="27" y="261.4795">register(context: RmqContext) : Promise&lt;default&gt;</text><ellipse cx="18" cy="274.4297" fill="#84BE84" rx="3" ry="3" style="stroke:#038048;stroke-width:1.0;"/><text fill="#000000" font-family="sans-serif" font-size="14" lengthAdjust="spacing" textLength="400" x="27" y="277.7764">resetPassword(context: RmqContext) : Promise&lt;default&gt;</text><ellipse cx="18" cy="290.7266" fill="#84BE84" rx="3" ry="3" style="stroke:#038048;stroke-width:1.0;"/><text fill="#000000" font-family="sans-serif" font-size="14" lengthAdjust="spacing" textLength="338" x="27" y="294.0732">signIn(context: RmqContext) : Promise&lt;default&gt;</text><ellipse cx="18" cy="307.0234" fill="#84BE84" rx="3" ry="3" style="stroke:#038048;stroke-width:1.0;"/><text fill="#000000" font-family="sans-serif" font-size="14" lengthAdjust="spacing" textLength="369" x="27" y="310.3701">signOAuth(context: RmqContext) : Promise&lt;default&gt;</text></g><!--class DiscordController--><g id="elem_DiscordController"><rect codeLine="19" fill="#F1F1F1" height="113.1875" id="DiscordController" rx="2.5" ry="2.5" style="stroke:#181818;stroke-width:0.5;" width="322" x="468" y="164"/><ellipse cx="564.75" cy="180" fill="#ADD1B2" rx="11" ry="11" style="stroke:#181818;stroke-width:1.0;"/><path d="M567.7188,185.6406 Q567.1406,185.9375 566.5,186.0781 Q565.8594,186.2344 565.1563,186.2344 Q562.6563,186.2344 561.3281,184.5938 Q560.0156,182.9375 560.0156,179.8125 Q560.0156,176.6875 561.3281,175.0313 Q562.6563,173.375 565.1563,173.375 Q565.8594,173.375 566.5,173.5313 Q567.1563,173.6875 567.7188,173.9844 L567.7188,176.7031 Q567.0938,176.125 566.5,175.8594 Q565.9063,175.5781 565.2813,175.5781 Q563.9375,175.5781 563.25,176.6563 Q562.5625,177.7188 562.5625,179.8125 Q562.5625,181.9063 563.25,182.9844 Q563.9375,184.0469 565.2813,184.0469 Q565.9063,184.0469 566.5,183.7813 Q567.0938,183.5 567.7188,182.9219 L567.7188,185.6406 Z " fill="#000000"/><text fill="#000000" font-family="sans-serif" font-size="14" lengthAdjust="spacing" textLength="120" x="585.25" y="184.8467">DiscordController</text><line style="stroke:#181818;stroke-width:0.5;" x1="469" x2="789" y1="196" y2="196"/><rect fill="none" height="6" style="stroke:#C82930;stroke-width:1.0;" width="6" x="476" y="206.6484"/><text fill="#000000" font-family="sans-serif" font-size="14" lengthAdjust="spacing" textLength="217" x="488" y="212.9951">discordService : DiscordService</text><line style="stroke:#181818;stroke-width:0.5;" x1="469" x2="789" y1="220.2969" y2="220.2969"/><ellipse cx="479" cy="233.9453" fill="#84BE84" rx="3" ry="3" style="stroke:#038048;stroke-width:1.0;"/><text fill="#000000" font-family="sans-serif" font-size="14" lengthAdjust="spacing" textLength="218" x="488" y="237.292">ack(context: RmqContext) : any</text><ellipse cx="479" cy="250.2422" fill="#84BE84" rx="3" ry="3" style="stroke:#038048;stroke-width:1.0;"/><text fill="#000000" font-family="sans-serif" font-size="14" lengthAdjust="spacing" textLength="221" x="488" y="253.5889">get(context: RmqContext) : void</text><ellipse cx="479" cy="266.5391" fill="#84BE84" rx="3" ry="3" style="stroke:#038048;stroke-width:1.0;"/><text fill="#000000" font-family="sans-serif" font-size="14" lengthAdjust="spacing" textLength="296" x="488" y="269.8857">sendMessage(context: RmqContext) : void</text></g><!--class ServiceController--><g id="elem_ServiceController"><rect codeLine="26" fill="#F1F1F1" height="145.7813" id="ServiceController" rx="2.5" ry="2.5" style="stroke:#181818;stroke-width:0.5;" width="407" x="825.5" y="147.5"/><ellipse cx="966.25" cy="163.5" fill="#ADD1B2" rx="11" ry="11" style="stroke:#181818;stroke-width:1.0;"/><path d="M969.2188,169.1406 Q968.6406,169.4375 968,169.5781 Q967.3594,169.7344 966.6563,169.7344 Q964.1563,169.7344 962.8281,168.0938 Q961.5156,166.4375 961.5156,163.3125 Q961.5156,160.1875 962.8281,158.5313 Q964.1563,156.875 966.6563,156.875 Q967.3594,156.875 968,157.0313 Q968.6563,157.1875 969.2188,157.4844 L969.2188,160.2031 Q968.5938,159.625 968,159.3594 Q967.4063,159.0781 966.7813,159.0781 Q965.4375,159.0781 964.75,160.1563 Q964.0625,161.2188 964.0625,163.3125 Q964.0625,165.4063 964.75,166.4844 Q965.4375,167.5469 966.7813,167.5469 Q967.4063,167.5469 968,167.2813 Q968.5938,167 969.2188,166.4219 L969.2188,169.1406 Z " fill="#000000"/><text fill="#000000" font-family="sans-serif" font-size="14" lengthAdjust="spacing" textLength="117" x="986.75" y="168.3467">ServiceController</text><line style="stroke:#181818;stroke-width:0.5;" x1="826.5" x2="1231.5" y1="179.5" y2="179.5"/><rect fill="none" height="6" style="stroke:#C82930;stroke-width:1.0;" width="6" x="833.5" y="190.1484"/><text fill="#000000" font-family="sans-serif" font-size="14" lengthAdjust="spacing" textLength="212" x="845.5" y="196.4951">serviceService : ServiceService</text><line style="stroke:#181818;stroke-width:0.5;" x1="826.5" x2="1231.5" y1="203.7969" y2="203.7969"/><ellipse cx="836.5" cy="217.4453" fill="#84BE84" rx="3" ry="3" style="stroke:#038048;stroke-width:1.0;"/><text fill="#000000" font-family="sans-serif" font-size="14" lengthAdjust="spacing" textLength="218" x="845.5" y="220.792">ack(context: RmqContext) : any</text><ellipse cx="836.5" cy="233.7422" fill="#84BE84" rx="3" ry="3" style="stroke:#038048;stroke-width:1.0;"/><text fill="#000000" font-family="sans-serif" font-size="14" lengthAdjust="spacing" textLength="363" x="845.5" y="237.0889">getAction(context: RmqContext) : Promise&lt;default&gt;</text><ellipse cx="836.5" cy="250.0391" fill="#84BE84" rx="3" ry="3" style="stroke:#038048;stroke-width:1.0;"/><text fill="#000000" font-family="sans-serif" font-size="14" lengthAdjust="spacing" textLength="381" x="845.5" y="253.3857">getReaction(context: RmqContext) : Promise&lt;default&gt;</text><ellipse cx="836.5" cy="266.3359" fill="#84BE84" rx="3" ry="3" style="stroke:#038048;stroke-width:1.0;"/><text fill="#000000" font-family="sans-serif" font-size="14" lengthAdjust="spacing" textLength="370" x="845.5" y="269.6826">getService(context: RmqContext) : Promise&lt;default&gt;</text><ellipse cx="836.5" cy="282.6328" fill="#84BE84" rx="3" ry="3" style="stroke:#038048;stroke-width:1.0;"/><text fill="#000000" font-family="sans-serif" font-size="14" lengthAdjust="spacing" textLength="231" x="845.5" y="285.9795">getServices() : Promise&lt;default&gt;</text></g><!--class SpotifyController--><g id="elem_SpotifyController"><rect codeLine="35" fill="#F1F1F1" height="96.8906" id="SpotifyController" rx="2.5" ry="2.5" style="stroke:#181818;stroke-width:0.5;" width="247" x="1267.5" y="172"/><ellipse cx="1330.25" cy="188" fill="#ADD1B2" rx="11" ry="11" style="stroke:#181818;stroke-width:1.0;"/><path d="M1333.2188,193.6406 Q1332.6406,193.9375 1332,194.0781 Q1331.3594,194.2344 1330.6563,194.2344 Q1328.1563,194.2344 1326.8281,192.5938 Q1325.5156,190.9375 1325.5156,187.8125 Q1325.5156,184.6875 1326.8281,183.0313 Q1328.1563,181.375 1330.6563,181.375 Q1331.3594,181.375 1332,181.5313 Q1332.6563,181.6875 1333.2188,181.9844 L1333.2188,184.7031 Q1332.5938,184.125 1332,183.8594 Q1331.4063,183.5781 1330.7813,183.5781 Q1329.4375,183.5781 1328.75,184.6563 Q1328.0625,185.7188 1328.0625,187.8125 Q1328.0625,189.9063 1328.75,190.9844 Q1329.4375,192.0469 1330.7813,192.0469 Q1331.4063,192.0469 1332,191.7813 Q1332.5938,191.5 1333.2188,190.9219 L1333.2188,193.6406 Z " fill="#000000"/><text fill="#000000" font-family="sans-serif" font-size="14" lengthAdjust="spacing" textLength="113" x="1350.75" y="192.8467">SpotifyController</text><line style="stroke:#181818;stroke-width:0.5;" x1="1268.5" x2="1513.5" y1="204" y2="204"/><rect fill="none" height="6" style="stroke:#C82930;stroke-width:1.0;" width="6" x="1275.5" y="214.6484"/><text fill="#000000" font-family="sans-serif" font-size="14" lengthAdjust="spacing" textLength="204" x="1287.5" y="220.9951">spotifyService : SpotifyService</text><line style="stroke:#181818;stroke-width:0.5;" x1="1268.5" x2="1513.5" y1="228.2969" y2="228.2969"/><ellipse cx="1278.5" cy="241.9453" fill="#84BE84" rx="3" ry="3" style="stroke:#038048;stroke-width:1.0;"/><text fill="#000000" font-family="sans-serif" font-size="14" lengthAdjust="spacing" textLength="218" x="1287.5" y="245.292">ack(context: RmqContext) : any</text><ellipse cx="1278.5" cy="258.2422" fill="#84BE84" rx="3" ry="3" style="stroke:#038048;stroke-width:1.0;"/><text fill="#000000" font-family="sans-serif" font-size="14" lengthAdjust="spacing" textLength="221" x="1287.5" y="261.5889">get(context: RmqContext) : void</text></g><!--class TimerController--><g id="elem_TimerController"><rect codeLine="41" fill="#F1F1F1" height="96.8906" id="TimerController" rx="2.5" ry="2.5" style="stroke:#181818;stroke-width:0.5;" width="247" x="1549.5" y="172"/><ellipse cx="1615.75" cy="188" fill="#ADD1B2" rx="11" ry="11" style="stroke:#181818;stroke-width:1.0;"/><path d="M1618.7188,193.6406 Q1618.1406,193.9375 1617.5,194.0781 Q1616.8594,194.2344 1616.1563,194.2344 Q1613.6563,194.2344 1612.3281,192.5938 Q1611.0156,190.9375 1611.0156,187.8125 Q1611.0156,184.6875 1612.3281,183.0313 Q1613.6563,181.375 1616.1563,181.375 Q1616.8594,181.375 1617.5,181.5313 Q1618.1563,181.6875 1618.7188,181.9844 L1618.7188,184.7031 Q1618.0938,184.125 1617.5,183.8594 Q1616.9063,183.5781 1616.2813,183.5781 Q1614.9375,183.5781 1614.25,184.6563 Q1613.5625,185.7188 1613.5625,187.8125 Q1613.5625,189.9063 1614.25,190.9844 Q1614.9375,192.0469 1616.2813,192.0469 Q1616.9063,192.0469 1617.5,191.7813 Q1618.0938,191.5 1618.7188,190.9219 L1618.7188,193.6406 Z " fill="#000000"/><text fill="#000000" font-family="sans-serif" font-size="14" lengthAdjust="spacing" textLength="106" x="1636.25" y="192.8467">TimerController</text><line style="stroke:#181818;stroke-width:0.5;" x1="1550.5" x2="1795.5" y1="204" y2="204"/><rect fill="none" height="6" style="stroke:#C82930;stroke-width:1.0;" width="6" x="1557.5" y="214.6484"/><text fill="#000000" font-family="sans-serif" font-size="14" lengthAdjust="spacing" textLength="187" x="1569.5" y="220.9951">timerService : TimerService</text><line style="stroke:#181818;stroke-width:0.5;" x1="1550.5" x2="1795.5" y1="228.2969" y2="228.2969"/><ellipse cx="1560.5" cy="241.9453" fill="#84BE84" rx="3" ry="3" style="stroke:#038048;stroke-width:1.0;"/><text fill="#000000" font-family="sans-serif" font-size="14" lengthAdjust="spacing" textLength="218" x="1569.5" y="245.292">ack(context: RmqContext) : any</text><ellipse cx="1560.5" cy="258.2422" fill="#84BE84" rx="3" ry="3" style="stroke:#038048;stroke-width:1.0;"/><text fill="#000000" font-family="sans-serif" font-size="14" lengthAdjust="spacing" textLength="221" x="1569.5" y="261.5889">get(context: RmqContext) : void</text></g><!--reverse link default to AuthController--><g id="link_default_AuthController"><path codeLine="18" d="M888.9209,47.1946 C770.4509,58.4646 604.4,79.73 450,123 C444.48,124.55 438.91,126.19 433.31,127.92 " fill="none" id="default-backto-AuthController" style="stroke:#181818;stroke-width:1.0;"/><polygon fill="none" points="906.84,45.49,888.3527,41.2216,889.4891,53.1677,906.84,45.49" style="stroke:#181818;stroke-width:1.0;"/></g><!--reverse link default to DiscordController--><g id="link_default_DiscordController"><path codeLine="25" d="M937.0322,69.33 C893.8322,85.5 855.68,100.86 808,123 C781.42,135.34 753.26,149.82 727.34,163.76 " fill="none" id="default-backto-DiscordController" style="stroke:#181818;stroke-width:1.0;"/><polygon fill="none" points="953.89,63.02,934.9289,63.7107,939.1355,74.9492,953.89,63.02" style="stroke:#181818;stroke-width:1.0;"/></g><!--reverse link default to ServiceController--><g id="link_default_ServiceController"><path codeLine="34" d="M1029,81.08 C1029,103.31 1029,117.85 1029,147.5 " fill="none" id="default-backto-ServiceController" style="stroke:#181818;stroke-width:1.0;"/><polygon fill="none" points="1029,63.08,1023,81.08,1035,81.08,1029,63.08" style="stroke:#181818;stroke-width:1.0;"/></g><!--reverse link default to SpotifyController--><g id="link_default_SpotifyController"><path codeLine="40" d="M1127.3991,69.2059 C1169.9991,84.5959 1205.47,99.38 1250,123 C1276.6,137.11 1304.27,155.2 1327.98,171.89 " fill="none" id="default-backto-SpotifyController" style="stroke:#181818;stroke-width:1.0;"/><polygon fill="none" points="1110.47,63.09,1125.3605,74.849,1129.4378,63.5629,1110.47,63.09" style="stroke:#181818;stroke-width:1.0;"/></g><!--reverse link default to TimerController--><g id="link_default_TimerController"><path codeLine="46" d="M1169.0641,44.049 C1273.4741,53.009 1408.11,72.69 1532,123 C1561.55,135 1591.14,153.93 1615.53,171.87 " fill="none" id="default-backto-TimerController" style="stroke:#181818;stroke-width:1.0;"/><polygon fill="none" points="1151.13,42.51,1168.5511,50.0271,1169.5771,38.071,1151.13,42.51" style="stroke:#181818;stroke-width:1.0;"/></g><!--SRC=[jL91Ri8m4Bpd5HOdgeeF85I9mgM7gWZuW6KlmIAswUv2Yrh-NjCa19g0OaHzicTtLZCxffLnQudIYcUfLYdwZTCZdtaKZD9HA87ZP6aq2B1htWaBlFIQJg65WImWAfD4egDX8JSPTyHN8i9v36ExoZk6J-wBgNqVvVS7qHVIxP9zoHjkU7ceeSyom9BUam6U0MwDWi0OLgzMqtzxGjs1uhS3-LBp1Bqr18D2_LFEj13NZw3y5d0I37rurDrhdQaX1eoTJy37wL5KCgbxSV6SkAtjaoh_mNUlLukrJ7jiI0KF3O7hl59bFZu3siUU0b_gsNgZ2ulWz2iGoHIkDjUDrHsKtWgb3TuehrJUPcT0bBUXOkCZ0msqASZRY8N6MtdKRVbXwjixxdNjsInsJNlDAoTxFGFkzsSQvDP4bNBdnW8sYEK3NacTdpp_K-XVEJy0]--></g></svg>