<?xml version="1.0" encoding="us-ascii" standalone="no"?><svg xmlns="http://www.w3.org/2000/svg" xmlns:xlink="http://www.w3.org/1999/xlink" contentStyleType="text/css" height="340px" preserveAspectRatio="none" style="width:2216px;height:340px;" version="1.1" viewBox="0 0 2216 340" width="2216px" zoomAndPan="magnify"><defs/><g><!--class default--><g id="elem_default"><rect codeLine="4" fill="#F1F1F1" height="56.2969" id="default" rx="2.5" ry="2.5" style="stroke:#181818;stroke-width:0.5;" width="244" x="1119.5" y="7"/><ellipse cx="1213.75" cy="23" fill="#ADD1B2" rx="11" ry="11" style="stroke:#181818;stroke-width:1.0;"/><path d="M1216.7188,28.6406 Q1216.1406,28.9375 1215.5,29.0781 Q1214.8594,29.2344 1214.1563,29.2344 Q1211.6563,29.2344 1210.3281,27.5938 Q1209.0156,25.9375 1209.0156,22.8125 Q1209.0156,19.6875 1210.3281,18.0313 Q1211.6563,16.375 1214.1563,16.375 Q1214.8594,16.375 1215.5,16.5313 Q1216.1563,16.6875 1216.7188,16.9844 L1216.7188,19.7031 Q1216.0938,19.125 1215.5,18.8594 Q1214.9063,18.5781 1214.2813,18.5781 Q1212.9375,18.5781 1212.25,19.6563 Q1211.5625,20.7188 1211.5625,22.8125 Q1211.5625,24.9063 1212.25,25.9844 Q1212.9375,27.0469 1214.2813,27.0469 Q1214.9063,27.0469 1215.5,26.7813 Q1216.0938,26.5 1216.7188,25.9219 L1216.7188,28.6406 Z " fill="#000000"/><text fill="#000000" font-family="sans-serif" font-size="14" lengthAdjust="spacing" textLength="47" x="1234.25" y="27.8467">default</text><line style="stroke:#181818;stroke-width:0.5;" x1="1120.5" x2="1362.5" y1="39" y2="39"/><ellipse cx="1130.5" cy="52.6484" fill="#84BE84" rx="3" ry="3" style="stroke:#038048;stroke-width:1.0;"/><text fill="#000000" font-family="sans-serif" font-size="14" lengthAdjust="spacing" textLength="218" x="1139.5" y="55.9951">ack(context: RmqContext) : any</text></g><!--class AppletController--><g id="elem_AppletController"><rect codeLine="7" fill="#F1F1F1" height="210.9688" id="AppletController" rx="2.5" ry="2.5" style="stroke:#181818;stroke-width:0.5;" width="377" x="7" y="123"/><ellipse cx="135.75" cy="139" fill="#ADD1B2" rx="11" ry="11" style="stroke:#181818;stroke-width:1.0;"/><path d="M138.7188,144.6406 Q138.1406,144.9375 137.5,145.0781 Q136.8594,145.2344 136.1563,145.2344 Q133.6563,145.2344 132.3281,143.5938 Q131.0156,141.9375 131.0156,138.8125 Q131.0156,135.6875 132.3281,134.0313 Q133.6563,132.375 136.1563,132.375 Q136.8594,132.375 137.5,132.5313 Q138.1563,132.6875 138.7188,132.9844 L138.7188,135.7031 Q138.0938,135.125 137.5,134.8594 Q136.9063,134.5781 136.2813,134.5781 Q134.9375,134.5781 134.25,135.6563 Q133.5625,136.7188 133.5625,138.8125 Q133.5625,140.9063 134.25,141.9844 Q134.9375,143.0469 136.2813,143.0469 Q136.9063,143.0469 137.5,142.7813 Q138.0938,142.5 138.7188,141.9219 L138.7188,144.6406 Z " fill="#000000"/><text fill="#000000" font-family="sans-serif" font-size="14" lengthAdjust="spacing" textLength="111" x="156.25" y="143.8467">AppletController</text><line style="stroke:#181818;stroke-width:0.5;" x1="8" x2="383" y1="155" y2="155"/><rect fill="none" height="6" style="stroke:#C82930;stroke-width:1.0;" width="6" x="15" y="165.6484"/><text fill="#000000" font-family="sans-serif" font-size="14" lengthAdjust="spacing" textLength="242" x="27" y="171.9951">actionService : ActionAppletService</text><rect fill="none" height="6" style="stroke:#C82930;stroke-width:1.0;" width="6" x="15" y="181.9453"/><text fill="#000000" font-family="sans-serif" font-size="14" lengthAdjust="spacing" textLength="263" x="27" y="188.292">appletCommonService : AppletService</text><rect fill="none" height="6" style="stroke:#C82930;stroke-width:1.0;" width="6" x="15" y="198.2422"/><text fill="#000000" font-family="sans-serif" font-size="14" lengthAdjust="spacing" textLength="200" x="27" y="204.5889">appletService : AppletService</text><rect fill="none" height="6" style="stroke:#C82930;stroke-width:1.0;" width="6" x="15" y="214.5391"/><text fill="#000000" font-family="sans-serif" font-size="14" lengthAdjust="spacing" textLength="274" x="27" y="220.8857">reactionService : ReactionAppletService</text><line style="stroke:#181818;stroke-width:0.5;" x1="8" x2="383" y1="228.1875" y2="228.1875"/><ellipse cx="18" cy="241.8359" fill="#84BE84" rx="3" ry="3" style="stroke:#038048;stroke-width:1.0;"/><text fill="#000000" font-family="sans-serif" font-size="14" lengthAdjust="spacing" textLength="218" x="27" y="245.1826">ack(context: RmqContext) : any</text><ellipse cx="18" cy="258.1328" fill="#84BE84" rx="3" ry="3" style="stroke:#038048;stroke-width:1.0;"/><text fill="#000000" font-family="sans-serif" font-size="14" lengthAdjust="spacing" textLength="341" x="27" y="261.4795">create(context: RmqContext) : Promise&lt;default&gt;</text><ellipse cx="18" cy="274.4297" fill="#84BE84" rx="3" ry="3" style="stroke:#038048;stroke-width:1.0;"/><text fill="#000000" font-family="sans-serif" font-size="14" lengthAdjust="spacing" textLength="341" x="27" y="277.7764">delete(context: RmqContext) : Promise&lt;default&gt;</text><ellipse cx="18" cy="290.7266" fill="#84BE84" rx="3" ry="3" style="stroke:#038048;stroke-width:1.0;"/><text fill="#000000" font-family="sans-serif" font-size="14" lengthAdjust="spacing" textLength="337" x="27" y="294.0732">findAll(context: RmqContext) : Promise&lt;default&gt;</text><ellipse cx="18" cy="307.0234" fill="#84BE84" rx="3" ry="3" style="stroke:#038048;stroke-width:1.0;"/><text fill="#000000" font-family="sans-serif" font-size="14" lengthAdjust="spacing" textLength="351" x="27" y="310.3701">findById(context: RmqContext) : Promise&lt;default&gt;</text><ellipse cx="18" cy="323.3203" fill="#84BE84" rx="3" ry="3" style="stroke:#038048;stroke-width:1.0;"/><text fill="#000000" font-family="sans-serif" font-size="14" lengthAdjust="spacing" textLength="324" x="27" y="326.667">test(context: RmqContext) : Promise&lt;default&gt;</text></g><!--class AuthController--><g id="elem_AuthController"><rect codeLine="20" fill="#F1F1F1" height="194.6719" id="AuthController" rx="2.5" ry="2.5" style="stroke:#181818;stroke-width:0.5;" width="426" x="419.5" y="131"/><ellipse cx="578.75" cy="147" fill="#ADD1B2" rx="11" ry="11" style="stroke:#181818;stroke-width:1.0;"/><path d="M581.7188,152.6406 Q581.1406,152.9375 580.5,153.0781 Q579.8594,153.2344 579.1563,153.2344 Q576.6563,153.2344 575.3281,151.5938 Q574.0156,149.9375 574.0156,146.8125 Q574.0156,143.6875 575.3281,142.0313 Q576.6563,140.375 579.1563,140.375 Q579.8594,140.375 580.5,140.5313 Q581.1563,140.6875 581.7188,140.9844 L581.7188,143.7031 Q581.0938,143.125 580.5,142.8594 Q579.9063,142.5781 579.2813,142.5781 Q577.9375,142.5781 577.25,143.6563 Q576.5625,144.7188 576.5625,146.8125 Q576.5625,148.9063 577.25,149.9844 Q577.9375,151.0469 579.2813,151.0469 Q579.9063,151.0469 580.5,150.7813 Q581.0938,150.5 581.7188,149.9219 L581.7188,152.6406 Z " fill="#000000"/><text fill="#000000" font-family="sans-serif" font-size="14" lengthAdjust="spacing" textLength="99" x="599.25" y="151.8467">AuthController</text><line style="stroke:#181818;stroke-width:0.5;" x1="420.5" x2="844.5" y1="163" y2="163"/><rect fill="none" height="6" style="stroke:#C82930;stroke-width:1.0;" width="6" x="427.5" y="173.6484"/><text fill="#000000" font-family="sans-serif" font-size="14" lengthAdjust="spacing" textLength="176" x="439.5" y="179.9951">authService : AuthService</text><line style="stroke:#181818;stroke-width:0.5;" x1="420.5" x2="844.5" y1="187.2969" y2="187.2969"/><ellipse cx="430.5" cy="200.9453" fill="#84BE84" rx="3" ry="3" style="stroke:#038048;stroke-width:1.0;"/><text fill="#000000" font-family="sans-serif" font-size="14" lengthAdjust="spacing" textLength="218" x="439.5" y="204.292">ack(context: RmqContext) : any</text><ellipse cx="430.5" cy="217.2422" fill="#84BE84" rx="3" ry="3" style="stroke:#038048;stroke-width:1.0;"/><text fill="#000000" font-family="sans-serif" font-size="14" lengthAdjust="spacing" textLength="397" x="439.5" y="220.5889">connectOAuth(context: RmqContext) : Promise&lt;default&gt;</text><ellipse cx="430.5" cy="233.5391" fill="#84BE84" rx="3" ry="3" style="stroke:#038048;stroke-width:1.0;"/><text fill="#000000" font-family="sans-serif" font-size="14" lengthAdjust="spacing" textLength="319" x="439.5" y="236.8857">me(context: RmqContext) : Promise&lt;default&gt;</text><ellipse cx="430.5" cy="249.8359" fill="#84BE84" rx="3" ry="3" style="stroke:#038048;stroke-width:1.0;"/><text fill="#000000" font-family="sans-serif" font-size="14" lengthAdjust="spacing" textLength="269" x="439.5" y="253.1826">recoverPassword() : Promise&lt;default&gt;</text><ellipse cx="430.5" cy="266.1328" fill="#84BE84" rx="3" ry="3" style="stroke:#038048;stroke-width:1.0;"/><text fill="#000000" font-family="sans-serif" font-size="14" lengthAdjust="spacing" textLength="350" x="439.5" y="269.4795">register(context: RmqContext) : Promise&lt;default&gt;</text><ellipse cx="430.5" cy="282.4297" fill="#84BE84" rx="3" ry="3" style="stroke:#038048;stroke-width:1.0;"/><text fill="#000000" font-family="sans-serif" font-size="14" lengthAdjust="spacing" textLength="400" x="439.5" y="285.7764">resetPassword(context: RmqContext) : Promise&lt;default&gt;</text><ellipse cx="430.5" cy="298.7266" fill="#84BE84" rx="3" ry="3" style="stroke:#038048;stroke-width:1.0;"/><text fill="#000000" font-family="sans-serif" font-size="14" lengthAdjust="spacing" textLength="338" x="439.5" y="302.0732">signIn(context: RmqContext) : Promise&lt;default&gt;</text><ellipse cx="430.5" cy="315.0234" fill="#84BE84" rx="3" ry="3" style="stroke:#038048;stroke-width:1.0;"/><text fill="#000000" font-family="sans-serif" font-size="14" lengthAdjust="spacing" textLength="369" x="439.5" y="318.3701">signOAuth(context: RmqContext) : Promise&lt;default&gt;</text></g><!--class DiscordController--><g id="elem_DiscordController"><rect codeLine="32" fill="#F1F1F1" height="113.1875" id="DiscordController" rx="2.5" ry="2.5" style="stroke:#181818;stroke-width:0.5;" width="322" x="880.5" y="172"/><ellipse cx="977.25" cy="188" fill="#ADD1B2" rx="11" ry="11" style="stroke:#181818;stroke-width:1.0;"/><path d="M980.2188,193.6406 Q979.6406,193.9375 979,194.0781 Q978.3594,194.2344 977.6563,194.2344 Q975.1563,194.2344 973.8281,192.5938 Q972.5156,190.9375 972.5156,187.8125 Q972.5156,184.6875 973.8281,183.0313 Q975.1563,181.375 977.6563,181.375 Q978.3594,181.375 979,181.5313 Q979.6563,181.6875 980.2188,181.9844 L980.2188,184.7031 Q979.5938,184.125 979,183.8594 Q978.4063,183.5781 977.7813,183.5781 Q976.4375,183.5781 975.75,184.6563 Q975.0625,185.7188 975.0625,187.8125 Q975.0625,189.9063 975.75,190.9844 Q976.4375,192.0469 977.7813,192.0469 Q978.4063,192.0469 979,191.7813 Q979.5938,191.5 980.2188,190.9219 L980.2188,193.6406 Z " fill="#000000"/><text fill="#000000" font-family="sans-serif" font-size="14" lengthAdjust="spacing" textLength="120" x="997.75" y="192.8467">DiscordController</text><line style="stroke:#181818;stroke-width:0.5;" x1="881.5" x2="1201.5" y1="204" y2="204"/><rect fill="none" height="6" style="stroke:#C82930;stroke-width:1.0;" width="6" x="888.5" y="214.6484"/><text fill="#000000" font-family="sans-serif" font-size="14" lengthAdjust="spacing" textLength="217" x="900.5" y="220.9951">discordService : DiscordService</text><line style="stroke:#181818;stroke-width:0.5;" x1="881.5" x2="1201.5" y1="228.2969" y2="228.2969"/><ellipse cx="891.5" cy="241.9453" fill="#84BE84" rx="3" ry="3" style="stroke:#038048;stroke-width:1.0;"/><text fill="#000000" font-family="sans-serif" font-size="14" lengthAdjust="spacing" textLength="218" x="900.5" y="245.292">ack(context: RmqContext) : any</text><ellipse cx="891.5" cy="258.2422" fill="#84BE84" rx="3" ry="3" style="stroke:#038048;stroke-width:1.0;"/><text fill="#000000" font-family="sans-serif" font-size="14" lengthAdjust="spacing" textLength="221" x="900.5" y="261.5889">get(context: RmqContext) : void</text><ellipse cx="891.5" cy="274.5391" fill="#84BE84" rx="3" ry="3" style="stroke:#038048;stroke-width:1.0;"/><text fill="#000000" font-family="sans-serif" font-size="14" lengthAdjust="spacing" textLength="296" x="900.5" y="277.8857">sendMessage(context: RmqContext) : void</text></g><!--class ServiceController--><g id="elem_ServiceController"><rect codeLine="39" fill="#F1F1F1" height="145.7813" id="ServiceController" rx="2.5" ry="2.5" style="stroke:#181818;stroke-width:0.5;" width="407" x="1238" y="155.5"/><ellipse cx="1378.75" cy="171.5" fill="#ADD1B2" rx="11" ry="11" style="stroke:#181818;stroke-width:1.0;"/><path d="M1381.7188,177.1406 Q1381.1406,177.4375 1380.5,177.5781 Q1379.8594,177.7344 1379.1563,177.7344 Q1376.6563,177.7344 1375.3281,176.0938 Q1374.0156,174.4375 1374.0156,171.3125 Q1374.0156,168.1875 1375.3281,166.5313 Q1376.6563,164.875 1379.1563,164.875 Q1379.8594,164.875 1380.5,165.0313 Q1381.1563,165.1875 1381.7188,165.4844 L1381.7188,168.2031 Q1381.0938,167.625 1380.5,167.3594 Q1379.9063,167.0781 1379.2813,167.0781 Q1377.9375,167.0781 1377.25,168.1563 Q1376.5625,169.2188 1376.5625,171.3125 Q1376.5625,173.4063 1377.25,174.4844 Q1377.9375,175.5469 1379.2813,175.5469 Q1379.9063,175.5469 1380.5,175.2813 Q1381.0938,175 1381.7188,174.4219 L1381.7188,177.1406 Z " fill="#000000"/><text fill="#000000" font-family="sans-serif" font-size="14" lengthAdjust="spacing" textLength="117" x="1399.25" y="176.3467">ServiceController</text><line style="stroke:#181818;stroke-width:0.5;" x1="1239" x2="1644" y1="187.5" y2="187.5"/><rect fill="none" height="6" style="stroke:#C82930;stroke-width:1.0;" width="6" x="1246" y="198.1484"/><text fill="#000000" font-family="sans-serif" font-size="14" lengthAdjust="spacing" textLength="212" x="1258" y="204.4951">serviceService : ServiceService</text><line style="stroke:#181818;stroke-width:0.5;" x1="1239" x2="1644" y1="211.7969" y2="211.7969"/><ellipse cx="1249" cy="225.4453" fill="#84BE84" rx="3" ry="3" style="stroke:#038048;stroke-width:1.0;"/><text fill="#000000" font-family="sans-serif" font-size="14" lengthAdjust="spacing" textLength="218" x="1258" y="228.792">ack(context: RmqContext) : any</text><ellipse cx="1249" cy="241.7422" fill="#84BE84" rx="3" ry="3" style="stroke:#038048;stroke-width:1.0;"/><text fill="#000000" font-family="sans-serif" font-size="14" lengthAdjust="spacing" textLength="363" x="1258" y="245.0889">getAction(context: RmqContext) : Promise&lt;default&gt;</text><ellipse cx="1249" cy="258.0391" fill="#84BE84" rx="3" ry="3" style="stroke:#038048;stroke-width:1.0;"/><text fill="#000000" font-family="sans-serif" font-size="14" lengthAdjust="spacing" textLength="381" x="1258" y="261.3857">getReaction(context: RmqContext) : Promise&lt;default&gt;</text><ellipse cx="1249" cy="274.3359" fill="#84BE84" rx="3" ry="3" style="stroke:#038048;stroke-width:1.0;"/><text fill="#000000" font-family="sans-serif" font-size="14" lengthAdjust="spacing" textLength="370" x="1258" y="277.6826">getService(context: RmqContext) : Promise&lt;default&gt;</text><ellipse cx="1249" cy="290.6328" fill="#84BE84" rx="3" ry="3" style="stroke:#038048;stroke-width:1.0;"/><text fill="#000000" font-family="sans-serif" font-size="14" lengthAdjust="spacing" textLength="231" x="1258" y="293.9795">getServices() : Promise&lt;default&gt;</text></g><!--class SpotifyController--><g id="elem_SpotifyController"><rect codeLine="48" fill="#F1F1F1" height="96.8906" id="SpotifyController" rx="2.5" ry="2.5" style="stroke:#181818;stroke-width:0.5;" width="247" x="1680" y="180"/><ellipse cx="1742.75" cy="196" fill="#ADD1B2" rx="11" ry="11" style="stroke:#181818;stroke-width:1.0;"/><path d="M1745.7188,201.6406 Q1745.1406,201.9375 1744.5,202.0781 Q1743.8594,202.2344 1743.1563,202.2344 Q1740.6563,202.2344 1739.3281,200.5938 Q1738.0156,198.9375 1738.0156,195.8125 Q1738.0156,192.6875 1739.3281,191.0313 Q1740.6563,189.375 1743.1563,189.375 Q1743.8594,189.375 1744.5,189.5313 Q1745.1563,189.6875 1745.7188,189.9844 L1745.7188,192.7031 Q1745.0938,192.125 1744.5,191.8594 Q1743.9063,191.5781 1743.2813,191.5781 Q1741.9375,191.5781 1741.25,192.6563 Q1740.5625,193.7188 1740.5625,195.8125 Q1740.5625,197.9063 1741.25,198.9844 Q1741.9375,200.0469 1743.2813,200.0469 Q1743.9063,200.0469 1744.5,199.7813 Q1745.0938,199.5 1745.7188,198.9219 L1745.7188,201.6406 Z " fill="#000000"/><text fill="#000000" font-family="sans-serif" font-size="14" lengthAdjust="spacing" textLength="113" x="1763.25" y="200.8467">SpotifyController</text><line style="stroke:#181818;stroke-width:0.5;" x1="1681" x2="1926" y1="212" y2="212"/><rect fill="none" height="6" style="stroke:#C82930;stroke-width:1.0;" width="6" x="1688" y="222.6484"/><text fill="#000000" font-family="sans-serif" font-size="14" lengthAdjust="spacing" textLength="204" x="1700" y="228.9951">spotifyService : SpotifyService</text><line style="stroke:#181818;stroke-width:0.5;" x1="1681" x2="1926" y1="236.2969" y2="236.2969"/><ellipse cx="1691" cy="249.9453" fill="#84BE84" rx="3" ry="3" style="stroke:#038048;stroke-width:1.0;"/><text fill="#000000" font-family="sans-serif" font-size="14" lengthAdjust="spacing" textLength="218" x="1700" y="253.292">ack(context: RmqContext) : any</text><ellipse cx="1691" cy="266.2422" fill="#84BE84" rx="3" ry="3" style="stroke:#038048;stroke-width:1.0;"/><text fill="#000000" font-family="sans-serif" font-size="14" lengthAdjust="spacing" textLength="221" x="1700" y="269.5889">get(context: RmqContext) : void</text></g><!--class TimerController--><g id="elem_TimerController"><rect codeLine="54" fill="#F1F1F1" height="96.8906" id="TimerController" rx="2.5" ry="2.5" style="stroke:#181818;stroke-width:0.5;" width="247" x="1962" y="180"/><ellipse cx="2028.25" cy="196" fill="#ADD1B2" rx="11" ry="11" style="stroke:#181818;stroke-width:1.0;"/><path d="M2031.2188,201.6406 Q2030.6406,201.9375 2030,202.0781 Q2029.3594,202.2344 2028.6563,202.2344 Q2026.1563,202.2344 2024.8281,200.5938 Q2023.5156,198.9375 2023.5156,195.8125 Q2023.5156,192.6875 2024.8281,191.0313 Q2026.1563,189.375 2028.6563,189.375 Q2029.3594,189.375 2030,189.5313 Q2030.6563,189.6875 2031.2188,189.9844 L2031.2188,192.7031 Q2030.5938,192.125 2030,191.8594 Q2029.4063,191.5781 2028.7813,191.5781 Q2027.4375,191.5781 2026.75,192.6563 Q2026.0625,193.7188 2026.0625,195.8125 Q2026.0625,197.9063 2026.75,198.9844 Q2027.4375,200.0469 2028.7813,200.0469 Q2029.4063,200.0469 2030,199.7813 Q2030.5938,199.5 2031.2188,198.9219 L2031.2188,201.6406 Z " fill="#000000"/><text fill="#000000" font-family="sans-serif" font-size="14" lengthAdjust="spacing" textLength="106" x="2048.75" y="200.8467">TimerController</text><line style="stroke:#181818;stroke-width:0.5;" x1="1963" x2="2208" y1="212" y2="212"/><rect fill="none" height="6" style="stroke:#C82930;stroke-width:1.0;" width="6" x="1970" y="222.6484"/><text fill="#000000" font-family="sans-serif" font-size="14" lengthAdjust="spacing" textLength="187" x="1982" y="228.9951">timerService : TimerService</text><line style="stroke:#181818;stroke-width:0.5;" x1="1963" x2="2208" y1="236.2969" y2="236.2969"/><ellipse cx="1973" cy="249.9453" fill="#84BE84" rx="3" ry="3" style="stroke:#038048;stroke-width:1.0;"/><text fill="#000000" font-family="sans-serif" font-size="14" lengthAdjust="spacing" textLength="218" x="1982" y="253.292">ack(context: RmqContext) : any</text><ellipse cx="1973" cy="266.2422" fill="#84BE84" rx="3" ry="3" style="stroke:#038048;stroke-width:1.0;"/><text fill="#000000" font-family="sans-serif" font-size="14" lengthAdjust="spacing" textLength="221" x="1982" y="269.5889">get(context: RmqContext) : void</text></g><!--reverse link default to AppletController--><g id="link_default_AppletController"><path codeLine="19" d="M1101.2158,44.3048 C901.5958,56.9148 532.83,84.33 401.5,123 C395.73,124.7 389.93,126.56 384.12,128.55 " fill="none" id="default-backto-AppletController" style="stroke:#181818;stroke-width:1.0;"/><polygon fill="none" points="1119.18,43.17,1100.8375,38.3167,1101.5941,50.2929,1119.18,43.17" style="stroke:#181818;stroke-width:1.0;"/></g><!--reverse link default to AuthController--><g id="link_default_AuthController"><path codeLine="31" d="M1101.7815,61.0299 C1026.6415,75.8799 946.6,94.56 862.5,123 C855.13,125.49 847.67,128.14 840.17,130.92 " fill="none" id="default-backto-AuthController" style="stroke:#181818;stroke-width:1.0;"/><polygon fill="none" points="1119.44,57.54,1100.6183,55.1437,1102.9448,66.916,1119.44,57.54" style="stroke:#181818;stroke-width:1.0;"/></g><!--reverse link default to DiscordController--><g id="link_default_DiscordController"><path codeLine="38" d="M1200.2687,75.4785 C1170.8687,103.6285 1136.99,136.07 1099.63,171.84 " fill="none" id="default-backto-DiscordController" style="stroke:#181818;stroke-width:1.0;"/><polygon fill="none" points="1213.27,63.03,1196.1192,71.1448,1204.4182,79.8123,1213.27,63.03" style="stroke:#181818;stroke-width:1.0;"/></g><!--reverse link default to ServiceController--><g id="link_default_ServiceController"><path codeLine="47" d="M1282.7308,75.4791 C1307.7108,99.3991 1332.32,122.96 1365.99,155.2 " fill="none" id="default-backto-ServiceController" style="stroke:#181818;stroke-width:1.0;"/><polygon fill="none" points="1269.73,63.03,1278.5811,79.8127,1286.8805,71.1455,1269.73,63.03" style="stroke:#181818;stroke-width:1.0;"/></g><!--reverse link default to SpotifyController--><g id="link_default_SpotifyController"><path codeLine="53" d="M1381.591,49.4214 C1468.011,60.6114 1567.13,80.32 1662.5,123 C1694.2,137.19 1725.63,159.46 1750.74,179.81 " fill="none" id="default-backto-SpotifyController" style="stroke:#181818;stroke-width:1.0;"/><polygon fill="none" points="1363.74,47.11,1380.8205,55.3717,1382.3614,43.4711,1363.74,47.11" style="stroke:#181818;stroke-width:1.0;"/></g><!--reverse link default to TimerController--><g id="link_default_TimerController"><path codeLine="59" d="M1381.7366,44.8597 C1554.3066,56.8697 1841.8,81.93 1944.5,123 C1977.46,136.18 2009.62,159.01 2034.88,179.97 " fill="none" id="default-backto-TimerController" style="stroke:#181818;stroke-width:1.0;"/><polygon fill="none" points="1363.78,43.61,1381.32,50.8452,1382.1531,38.8742,1363.78,43.61" style="stroke:#181818;stroke-width:1.0;"/></g><!--SRC=[jLJBRi8m4Bpp5HOdgeeVGAWIZqiFLH7m0vQz2HP-fFP26xNyUmrnI482nLMRKxmxizxPMTbjXSwefOfCATkcrkmqdnbfB45BjVCfqDZR20u4L8OvKO0Rmrqzb0YGFi8aTOxqEIHq9x5FFdl4Vu- -x80PZV218x9KRxFY_u6C2DLvxr3o9bac0OzPQwG4MnOOKeR2w1NOlM3WMPFJkO27Q0262aeruDU0Do4MBgzTXaWR_9F44uRvYWZNO0jhb70m3iDxAZWS_4sHd4HeFf4odZJDdtaS2y7XtOn3hzgCyTTms67uUHDskEdQ0n-kULQT8ammMWF3roCvJgkAjC42Ctkm2o_etLW-k8LCXKEmiVKTuBbw5DM9L3_hU4xSr3hyRjfQkZqNZdaD7ORp8bDvFcy4xhSzXQjxkZU21ucW-GiuHrEu2MuBQoiejOLEExIv8bDfMpK2KTgA1p7EK4yh7xHeOkZnjpmtk7DXsjCxppKpA9AyQwv5fZRNHk3lTgQZtLPJPRjheS1sD8l7UDNgkdRypqOls_a6]--></g></svg>