<?xml version="1.0" encoding="us-ascii" standalone="no"?><svg xmlns="http://www.w3.org/2000/svg" xmlns:xlink="http://www.w3.org/1999/xlink" contentStyleType="text/css" height="132px" preserveAspectRatio="none" style="width:121px;height:132px;" version="1.1" viewBox="0 0 121 132" width="121px" zoomAndPan="magnify"><defs/><g><!--class NewAction--><g id="elem_NewAction"><rect codeLine="4" fill="#F1F1F1" height="32" id="NewAction" rx="2.5" ry="2.5" style="stroke:#181818;stroke-width:0.5;" width="107" x="7" y="93"/><ellipse cx="22" cy="109" fill="#B4A7E5" rx="11" ry="11" style="stroke:#181818;stroke-width:1.0;"/><path d="M17.9219,104.7656 L17.9219,102.6094 L25.3125,102.6094 L25.3125,104.7656 L22.8438,104.7656 L22.8438,112.8438 L25.3125,112.8438 L25.3125,115 L17.9219,115 L17.9219,112.8438 L20.3906,112.8438 L20.3906,104.7656 L17.9219,104.7656 Z " fill="#000000"/><text fill="#000000" font-family="sans-serif" font-size="14" font-style="italic" lengthAdjust="spacing" textLength="75" x="36" y="113.8467">NewAction</text></g><!--class Event--><g id="elem_Event"><rect codeLine="6" fill="#F1F1F1" height="26.2969" id="Event" rx="2.5" ry="2.5" style="stroke:#181818;stroke-width:0.5;" width="45" x="38" y="7"/><text fill="#000000" font-family="sans-serif" font-size="14" lengthAdjust="spacing" textLength="39" x="41" y="24.9951">Event</text></g><!--reverse link Event to NewAction--><g id="link_Event_NewAction"><path codeLine="8" d="M60.5,51.1 C60.5,66.69 60.5,75.82 60.5,92.79 " fill="none" id="Event-backto-NewAction" style="stroke:#181818;stroke-width:1.0;"/><polygon fill="none" points="60.5,33.1,54.5,51.1,66.5,51.1,60.5,33.1" style="stroke:#181818;stroke-width:1.0;"/></g><!--SRC=[JOn13i8m30JlUOMLUt_01Igk_C5oN6erSIh7W13mzqO2f1vdLhDj4LtHiC09QRbQlMaQQwu6RgYjJwmUPaaCN5P_Gc6VQsfxDGddRaITRK9YY1T-7CcbQeHN-0JAs1h4yxr_nM_v0o0noXp-U7WFmpxV0000]--></g></svg>