<?xml version="1.0" encoding="us-ascii" standalone="no"?><svg xmlns="http://www.w3.org/2000/svg" xmlns:xlink="http://www.w3.org/1999/xlink" contentStyleType="text/css" height="132px" preserveAspectRatio="none" style="width:138px;height:132px;" version="1.1" viewBox="0 0 138 132" width="138px" zoomAndPan="magnify"><defs/><g><!--class NewReaction--><g id="elem_NewReaction"><rect codeLine="4" fill="#F1F1F1" height="32" id="NewReaction" rx="2.5" ry="2.5" style="stroke:#181818;stroke-width:0.5;" width="124" x="7" y="93"/><ellipse cx="22" cy="109" fill="#B4A7E5" rx="11" ry="11" style="stroke:#181818;stroke-width:1.0;"/><path d="M17.9219,104.7656 L17.9219,102.6094 L25.3125,102.6094 L25.3125,104.7656 L22.8438,104.7656 L22.8438,112.8438 L25.3125,112.8438 L25.3125,115 L17.9219,115 L17.9219,112.8438 L20.3906,112.8438 L20.3906,104.7656 L17.9219,104.7656 Z " fill="#000000"/><text fill="#000000" font-family="sans-serif" font-size="14" font-style="italic" lengthAdjust="spacing" textLength="92" x="36" y="113.8467">NewReaction</text></g><!--class Event--><g id="elem_Event"><rect codeLine="6" fill="#F1F1F1" height="26.2969" id="Event" rx="2.5" ry="2.5" style="stroke:#181818;stroke-width:0.5;" width="45" x="46.5" y="7"/><text fill="#000000" font-family="sans-serif" font-size="14" lengthAdjust="spacing" textLength="39" x="49.5" y="24.9951">Event</text></g><!--reverse link Event to NewReaction--><g id="link_Event_NewReaction"><path codeLine="8" d="M69,51.1 C69,66.69 69,75.82 69,92.79 " fill="none" id="Event-backto-NewReaction" style="stroke:#181818;stroke-width:1.0;"/><polygon fill="none" points="69,33.1,63,51.1,75,51.1,69,33.1" style="stroke:#181818;stroke-width:1.0;"/></g><!--SRC=[LOmn3i8m34NtdCBAtXimWReoS0FBSQdLnAaS0qB0tHi9a61yx-k_jeYkQ5XWZxIShLuq7Mgk1cwehK-i7cP935nMlqDXdsjglseIpjs8Ejk4n12FV3inaalL28_m2fInDOZZjTVY-_i1837A7BwuUmx3Vs03]--></g></svg>