<?xml version="1.0" encoding="us-ascii" standalone="no"?><svg xmlns="http://www.w3.org/2000/svg" xmlns:xlink="http://www.w3.org/1999/xlink" contentStyleType="text/css" height="268px" preserveAspectRatio="none" style="width:168px;height:268px;" version="1.1" viewBox="0 0 168 268" width="168px" zoomAndPan="magnify"><defs/><g><!--class UserLoggedInDto--><g id="elem_UserLoggedInDto"><rect codeLine="4" fill="#F1F1F1" height="105.1875" id="UserLoggedInDto" rx="2.5" ry="2.5" style="stroke:#181818;stroke-width:0.5;" width="154" x="7" y="156"/><ellipse cx="22" cy="172" fill="#B4A7E5" rx="11" ry="11" style="stroke:#181818;stroke-width:1.0;"/><path d="M17.9219,167.7656 L17.9219,165.6094 L25.3125,165.6094 L25.3125,167.7656 L22.8438,167.7656 L22.8438,175.8438 L25.3125,175.8438 L25.3125,178 L17.9219,178 L17.9219,175.8438 L20.3906,175.8438 L20.3906,167.7656 L17.9219,167.7656 Z " fill="#000000"/><text fill="#000000" font-family="sans-serif" font-size="14" font-style="italic" lengthAdjust="spacing" textLength="122" x="36" y="176.8467">UserLoggedInDto</text><line style="stroke:#181818;stroke-width:0.5;" x1="8" x2="160" y1="188" y2="188"/><ellipse cx="18" cy="201.6484" fill="none" rx="3" ry="3" style="stroke:#038048;stroke-width:1.0;"/><text fill="#000000" font-family="sans-serif" font-size="14" lengthAdjust="spacing" textLength="88" x="27" y="204.9951">email : string</text><ellipse cx="18" cy="217.9453" fill="none" rx="3" ry="3" style="stroke:#038048;stroke-width:1.0;"/><text fill="#000000" font-family="sans-serif" font-size="14" lengthAdjust="spacing" textLength="79" x="27" y="221.292">id : number</text><ellipse cx="18" cy="234.2422" fill="none" rx="3" ry="3" style="stroke:#038048;stroke-width:1.0;"/><text fill="#000000" font-family="sans-serif" font-size="14" lengthAdjust="spacing" textLength="91" x="27" y="237.5889">name : string</text><ellipse cx="18" cy="250.5391" fill="none" rx="3" ry="3" style="stroke:#038048;stroke-width:1.0;"/><text fill="#000000" font-family="sans-serif" font-size="14" lengthAdjust="spacing" textLength="92" x="27" y="253.8857">token : string</text></g><!--class UserDto--><g id="elem_UserDto"><rect codeLine="10" fill="#F1F1F1" height="88.8906" id="UserDto" rx="2.5" ry="2.5" style="stroke:#181818;stroke-width:0.5;" width="117" x="25.5" y="7"/><ellipse cx="53.55" cy="23" fill="#B4A7E5" rx="11" ry="11" style="stroke:#181818;stroke-width:1.0;"/><path d="M49.4719,18.7656 L49.4719,16.6094 L56.8625,16.6094 L56.8625,18.7656 L54.3938,18.7656 L54.3938,26.8438 L56.8625,26.8438 L56.8625,29 L49.4719,29 L49.4719,26.8438 L51.9406,26.8438 L51.9406,18.7656 L49.4719,18.7656 Z " fill="#000000"/><text fill="#000000" font-family="sans-serif" font-size="14" font-style="italic" lengthAdjust="spacing" textLength="56" x="70.45" y="27.8467">UserDto</text><line style="stroke:#181818;stroke-width:0.5;" x1="26.5" x2="141.5" y1="39" y2="39"/><ellipse cx="36.5" cy="52.6484" fill="none" rx="3" ry="3" style="stroke:#038048;stroke-width:1.0;"/><text fill="#000000" font-family="sans-serif" font-size="14" lengthAdjust="spacing" textLength="88" x="45.5" y="55.9951">email : string</text><ellipse cx="36.5" cy="68.9453" fill="none" rx="3" ry="3" style="stroke:#038048;stroke-width:1.0;"/><text fill="#000000" font-family="sans-serif" font-size="14" lengthAdjust="spacing" textLength="79" x="45.5" y="72.292">id : number</text><ellipse cx="36.5" cy="85.2422" fill="none" rx="3" ry="3" style="stroke:#038048;stroke-width:1.0;"/><text fill="#000000" font-family="sans-serif" font-size="14" lengthAdjust="spacing" textLength="91" x="45.5" y="88.5889">name : string</text></g><!--reverse link UserDto to UserLoggedInDto--><g id="link_UserDto_UserLoggedInDto"><path codeLine="15" d="M84,114.09 C84,132.62 84,136.38 84,155.73 " fill="none" id="UserDto-backto-UserLoggedInDto" style="stroke:#181818;stroke-width:1.0;"/><polygon fill="none" points="84,96.09,78,114.09,90,114.09,84,96.09" style="stroke:#181818;stroke-width:1.0;"/></g><!--SRC=[fS-n2i9030RWlKyHNAKl84xg8hZw0B6NNaDxIScbWsZVtOCEbJgQySjFVf9xbX4D4vomwQFf9E6iWngueUIo8l6guq10QVGd9F9EG_wcbcaemk9aBJO4ktickscC5AvoSTt1gu8oUqh80nmWkx74nJWKa2azo1OGJBJ9kFOagytRhZyxvcgzSdpNzUy37m00]--></g></svg>