<?xml version="1.0" encoding="us-ascii" standalone="no"?><svg xmlns="http://www.w3.org/2000/svg" xmlns:xlink="http://www.w3.org/1999/xlink" contentStyleType="text/css" height="333px" preserveAspectRatio="none" style="width:656px;height:333px;" version="1.1" viewBox="0 0 656 333" width="656px" zoomAndPan="magnify"><defs/><g><!--class UserDto--><g id="elem_UserDto"><rect codeLine="4" fill="#F1F1F1" height="88.8906" id="UserDto" rx="2.5" ry="2.5" style="stroke:#181818;stroke-width:0.5;" width="117" x="297" y="7"/><ellipse cx="325.05" cy="23" fill="#B4A7E5" rx="11" ry="11" style="stroke:#181818;stroke-width:1.0;"/><path d="M320.9719,18.7656 L320.9719,16.6094 L328.3625,16.6094 L328.3625,18.7656 L325.8938,18.7656 L325.8938,26.8438 L328.3625,26.8438 L328.3625,29 L320.9719,29 L320.9719,26.8438 L323.4406,26.8438 L323.4406,18.7656 L320.9719,18.7656 Z " fill="#000000"/><text fill="#000000" font-family="sans-serif" font-size="14" font-style="italic" lengthAdjust="spacing" textLength="56" x="341.95" y="27.8467">UserDto</text><line style="stroke:#181818;stroke-width:0.5;" x1="298" x2="413" y1="39" y2="39"/><ellipse cx="308" cy="52.6484" fill="none" rx="3" ry="3" style="stroke:#038048;stroke-width:1.0;"/><text fill="#000000" font-family="sans-serif" font-size="14" lengthAdjust="spacing" textLength="88" x="317" y="55.9951">email : string</text><ellipse cx="308" cy="68.9453" fill="none" rx="3" ry="3" style="stroke:#038048;stroke-width:1.0;"/><text fill="#000000" font-family="sans-serif" font-size="14" lengthAdjust="spacing" textLength="79" x="317" y="72.292">id : number</text><ellipse cx="308" cy="85.2422" fill="none" rx="3" ry="3" style="stroke:#038048;stroke-width:1.0;"/><text fill="#000000" font-family="sans-serif" font-size="14" lengthAdjust="spacing" textLength="91" x="317" y="88.5889">name : string</text></g><!--class UserOAuthCredentialsDto--><g id="elem_UserOAuthCredentialsDto"><rect codeLine="9" fill="#F1F1F1" height="170.375" id="UserOAuthCredentialsDto" rx="2.5" ry="2.5" style="stroke:#181818;stroke-width:0.5;" width="209" x="7" y="156"/><ellipse cx="22" cy="172" fill="#B4A7E5" rx="11" ry="11" style="stroke:#181818;stroke-width:1.0;"/><path d="M17.9219,167.7656 L17.9219,165.6094 L25.3125,165.6094 L25.3125,167.7656 L22.8438,167.7656 L22.8438,175.8438 L25.3125,175.8438 L25.3125,178 L17.9219,178 L17.9219,175.8438 L20.3906,175.8438 L20.3906,167.7656 L17.9219,167.7656 Z " fill="#000000"/><text fill="#000000" font-family="sans-serif" font-size="14" font-style="italic" lengthAdjust="spacing" textLength="177" x="36" y="176.8467">UserOAuthCredentialsDto</text><line style="stroke:#181818;stroke-width:0.5;" x1="8" x2="215" y1="188" y2="188"/><ellipse cx="18" cy="201.6484" fill="none" rx="3" ry="3" style="stroke:#038048;stroke-width:1.0;"/><text fill="#000000" font-family="sans-serif" font-size="14" lengthAdjust="spacing" textLength="145" x="27" y="204.9951">accessToken : string</text><ellipse cx="18" cy="217.9453" fill="none" rx="3" ry="3" style="stroke:#038048;stroke-width:1.0;"/><text fill="#000000" font-family="sans-serif" font-size="14" lengthAdjust="spacing" textLength="88" x="27" y="221.292">email : string</text><ellipse cx="18" cy="234.2422" fill="none" rx="3" ry="3" style="stroke:#038048;stroke-width:1.0;"/><text fill="#000000" font-family="sans-serif" font-size="14" lengthAdjust="spacing" textLength="79" x="27" y="237.5889">id : number</text><ellipse cx="18" cy="250.5391" fill="none" rx="3" ry="3" style="stroke:#038048;stroke-width:1.0;"/><text fill="#000000" font-family="sans-serif" font-size="14" lengthAdjust="spacing" textLength="91" x="27" y="253.8857">name : string</text><ellipse cx="18" cy="266.8359" fill="none" rx="3" ry="3" style="stroke:#038048;stroke-width:1.0;"/><text fill="#000000" font-family="sans-serif" font-size="14" lengthAdjust="spacing" textLength="133" x="27" y="270.1826">provider : Providers</text><ellipse cx="18" cy="283.1328" fill="none" rx="3" ry="3" style="stroke:#038048;stroke-width:1.0;"/><text fill="#000000" font-family="sans-serif" font-size="14" lengthAdjust="spacing" textLength="120" x="27" y="286.4795">providerId : string</text><ellipse cx="18" cy="299.4297" fill="none" rx="3" ry="3" style="stroke:#038048;stroke-width:1.0;"/><text fill="#000000" font-family="sans-serif" font-size="14" lengthAdjust="spacing" textLength="145" x="27" y="302.7764">refreshToken : string</text><ellipse cx="18" cy="315.7266" fill="none" rx="3" ry="3" style="stroke:#038048;stroke-width:1.0;"/><text fill="#000000" font-family="sans-serif" font-size="14" lengthAdjust="spacing" textLength="114" x="27" y="319.0732">user : UserEntity</text></g><!--class UserNativeCredentialsDto--><g id="elem_UserNativeCredentialsDto"><rect codeLine="20" fill="#F1F1F1" height="105.1875" id="UserNativeCredentialsDto" rx="2.5" ry="2.5" style="stroke:#181818;stroke-width:0.5;" width="209" x="251" y="188.5"/><ellipse cx="266" cy="204.5" fill="#B4A7E5" rx="11" ry="11" style="stroke:#181818;stroke-width:1.0;"/><path d="M261.9219,200.2656 L261.9219,198.1094 L269.3125,198.1094 L269.3125,200.2656 L266.8438,200.2656 L266.8438,208.3438 L269.3125,208.3438 L269.3125,210.5 L261.9219,210.5 L261.9219,208.3438 L264.3906,208.3438 L264.3906,200.2656 L261.9219,200.2656 Z " fill="#000000"/><text fill="#000000" font-family="sans-serif" font-size="14" font-style="italic" lengthAdjust="spacing" textLength="177" x="280" y="209.3467">UserNativeCredentialsDto</text><line style="stroke:#181818;stroke-width:0.5;" x1="252" x2="459" y1="220.5" y2="220.5"/><ellipse cx="262" cy="234.1484" fill="none" rx="3" ry="3" style="stroke:#038048;stroke-width:1.0;"/><text fill="#000000" font-family="sans-serif" font-size="14" lengthAdjust="spacing" textLength="88" x="271" y="237.4951">email : string</text><ellipse cx="262" cy="250.4453" fill="none" rx="3" ry="3" style="stroke:#038048;stroke-width:1.0;"/><text fill="#000000" font-family="sans-serif" font-size="14" lengthAdjust="spacing" textLength="79" x="271" y="253.792">id : number</text><ellipse cx="262" cy="266.7422" fill="none" rx="3" ry="3" style="stroke:#038048;stroke-width:1.0;"/><text fill="#000000" font-family="sans-serif" font-size="14" lengthAdjust="spacing" textLength="91" x="271" y="270.0889">name : string</text><ellipse cx="262" cy="283.0391" fill="none" rx="3" ry="3" style="stroke:#038048;stroke-width:1.0;"/><text fill="#000000" font-family="sans-serif" font-size="14" lengthAdjust="spacing" textLength="119" x="271" y="286.3857">password : string</text></g><!--class UserLoggedInDto--><g id="elem_UserLoggedInDto"><rect codeLine="27" fill="#F1F1F1" height="105.1875" id="UserLoggedInDto" rx="2.5" ry="2.5" style="stroke:#181818;stroke-width:0.5;" width="154" x="495.5" y="188.5"/><ellipse cx="510.5" cy="204.5" fill="#B4A7E5" rx="11" ry="11" style="stroke:#181818;stroke-width:1.0;"/><path d="M506.4219,200.2656 L506.4219,198.1094 L513.8125,198.1094 L513.8125,200.2656 L511.3438,200.2656 L511.3438,208.3438 L513.8125,208.3438 L513.8125,210.5 L506.4219,210.5 L506.4219,208.3438 L508.8906,208.3438 L508.8906,200.2656 L506.4219,200.2656 Z " fill="#000000"/><text fill="#000000" font-family="sans-serif" font-size="14" font-style="italic" lengthAdjust="spacing" textLength="122" x="524.5" y="209.3467">UserLoggedInDto</text><line style="stroke:#181818;stroke-width:0.5;" x1="496.5" x2="648.5" y1="220.5" y2="220.5"/><ellipse cx="506.5" cy="234.1484" fill="none" rx="3" ry="3" style="stroke:#038048;stroke-width:1.0;"/><text fill="#000000" font-family="sans-serif" font-size="14" lengthAdjust="spacing" textLength="88" x="515.5" y="237.4951">email : string</text><ellipse cx="506.5" cy="250.4453" fill="none" rx="3" ry="3" style="stroke:#038048;stroke-width:1.0;"/><text fill="#000000" font-family="sans-serif" font-size="14" lengthAdjust="spacing" textLength="79" x="515.5" y="253.792">id : number</text><ellipse cx="506.5" cy="266.7422" fill="none" rx="3" ry="3" style="stroke:#038048;stroke-width:1.0;"/><text fill="#000000" font-family="sans-serif" font-size="14" lengthAdjust="spacing" textLength="91" x="515.5" y="270.0889">name : string</text><ellipse cx="506.5" cy="283.0391" fill="none" rx="3" ry="3" style="stroke:#038048;stroke-width:1.0;"/><text fill="#000000" font-family="sans-serif" font-size="14" lengthAdjust="spacing" textLength="92" x="515.5" y="286.3857">token : string</text></g><!--reverse link UserDto to UserOAuthCredentialsDto--><g id="link_UserDto_UserOAuthCredentialsDto"><path codeLine="19" d="M284.3282,107.1889 C259.8282,126.0189 244.64,137.69 216.43,159.37 " fill="none" id="UserDto-backto-UserOAuthCredentialsDto" style="stroke:#181818;stroke-width:1.0;"/><polygon fill="none" points="298.6,96.22,280.6719,102.4316,287.9845,111.9461,298.6,96.22" style="stroke:#181818;stroke-width:1.0;"/></g><!--reverse link UserDto to UserNativeCredentialsDto--><g id="link_UserDto_UserNativeCredentialsDto"><path codeLine="26" d="M355.5,114.46 C355.5,141.95 355.5,159.49 355.5,188.33 " fill="none" id="UserDto-backto-UserNativeCredentialsDto" style="stroke:#181818;stroke-width:1.0;"/><polygon fill="none" points="355.5,96.46,349.5,114.46,361.5,114.46,355.5,96.46" style="stroke:#181818;stroke-width:1.0;"/></g><!--reverse link UserDto to UserLoggedInDto--><g id="link_UserDto_UserLoggedInDto"><path codeLine="33" d="M421.0879,107.6987 C442.8479,126.0887 454.61,136.18 477.5,156 C489.48,166.38 502.24,177.56 514.39,188.28 " fill="none" id="UserDto-backto-UserLoggedInDto" style="stroke:#181818;stroke-width:1.0;"/><polygon fill="none" points="407.34,96.08,417.215,112.2814,424.9608,103.1161,407.34,96.08" style="stroke:#181818;stroke-width:1.0;"/></g><!--SRC=[hP11JiD034NtFSMeMzGB83PGM5H2m08EO39EOYLZHxPJL05tPsYHcexIJSMiHjyp_kz_wuW7K4ZX3ggkKHavhgKN3Qx0baV8lcWfOi0q-2uaz5QYJQMQiCyAiQFMK65OlXdglSioV2v2FbUOWFfm7SoLk3be5BF0Otf7FGWC2OzllijzpxUZjsl5c848UflkXwf2irVfa0kN2vptqg2opGarooz_LpkTR6BnHR5Mj7QEOhJzfjyO3vdUTpdUiQIRhzNgVCQoXoTmskAP8YwE2sOVed7Q_npWh7b9-2XDWt73_m7cfstEKqqDVm00]--></g></svg>